<?xml version="1.0" encoding="utf-8"?>
<!-- Generator: Adobe Illustrator 27.0.0, SVG Export Plug-In . SVG Version: 6.00 Build 0)  -->
<svg version="1.1" id="student" xmlns="http://www.w3.org/2000/svg" xmlns:xlink="http://www.w3.org/1999/xlink" x="0px" y="0px"
	 viewBox="0 0 1200 1600" style="enable-background:new 0 0 1200 1600;" xml:space="preserve">
<style type="text/css">
	.st0{fill:#E4E4E0;}
	.st1{fill:#F7F6F6;}
	.st2{fill:#231F20;}
	.st3{fill:#F7F7F6;}
	.st4{fill:#C4845C;}
	.st5{fill:#F0F0EC;}
	.st6{fill:#FFFFFF;}
	.st7{fill:#7EBFD7;}
	.st8{fill:#E3D08F;}
	.st9{fill:#E8D79D;}
	.st10{fill:#CC8879;}
	.st11{fill:#F4F3F3;}
	.st12{fill:#272727;}
	.st13{opacity:0.6;fill:#C4845C;}
	.st14{fill-rule:evenodd;clip-rule:evenodd;fill:#393939;}
	.st15{fill:#FF6C6C;}
	.st16{fill:#271E1E;}
	.st17{fill:#CB9477;}
</style>
<path class="st0" d="M516.46,1371.51c3.93-11.8-3.82-21.31-8.2-24.59c-2.19,3.06-4.92,18.58-9.84,30.6l-12.84,15.58l-19.4,23.22
	l-24.04,11.48l12.57,14.75C463.27,1436,512.53,1383.32,516.46,1371.51z"/>
<path class="st1" d="M590.92,1452.61c0,0,0.7-25.65-4.76-39.86s-11.08-50.85-11.08-50.85s-9.68,10.38-27.72,10.38
	c-18.03,0-37.16-4.34-37.16-4.34s-33.49,44.23-42.24,49.7c-8.74,5.46-51.37,16.94-51.37,16.94c-9.35,0-16.94,7.58-16.94,16.94v8.62
	h102.74L590.92,1452.61z"/>
<path class="st2" d="M592.36,1451.41l-96.73,4.38l-96.18-4.38l-1.52,12.58c-0.46,3.82,2.45,7.21,6.29,7.34l89.4,3.04l49.91,0.54
	l49.91-1.64L592.36,1451.41z"/>
<path class="st1" d="M592.09,1462.36l0.16,4.37l-29.01,1.1l-11.12,0.39c-13.34,0.45-23.42,0.69-30.05,0.7h-1.93
	c-13.74-0.08-42.67-1.16-54.59-2.12l-0.9-0.08l0.38-4.36l0.89,0.07c12.25,0.99,42.88,2.11,55.75,2.11l2.03-0.01
	c6.41-0.04,15.63-0.27,27.48-0.67l7.16-0.25L592.09,1462.36z"/>
<path class="st2" d="M468.07,1473.76v-9.84v-3.82l-69.4-3.28l-0.99,8.87c-0.35,3.17,2.07,5.97,5.26,6.07L468.07,1473.76z"/>
<path class="st1" d="M610.95,1452.61c0,0-0.7-25.65,4.76-39.86c5.46-14.21,11.08-50.85,11.08-50.85s9.68,10.38,27.72,10.38
	c18.03,0,37.16-4.34,37.16-4.34s33.49,44.23,42.24,49.7c8.74,5.46,51.37,16.94,51.37,16.94c9.36,0,16.94,7.58,16.94,16.94v8.62
	H699.48L610.95,1452.61z"/>
<path class="st2" d="M609.51,1451.41l96.73,4.38l96.18-4.38l1.52,12.58c0.46,3.82-2.45,7.21-6.29,7.34l-89.4,3.04l-49.91,0.54
	l-49.91-1.64L609.51,1451.41z"/>
<path class="st1" d="M609.63,1466.73l0.16-4.37l29.01,1.1c2.43,0.09,4.76,0.17,7.01,0.25l9.48,0.32c10.9,0.34,19.25,0.53,24.91,0.53
	h1.54c13.63-0.08,42.42-1.15,54.21-2.1l0.89-0.07l0.38,4.36l-0.9,0.08c-11.92,0.96-40.82,2.04-54.56,2.12h-1.95l-2.09-0.01
	c-6.73-0.05-16.37-0.3-28.76-0.72l-5.58-0.19L609.63,1466.73z"/>
<g>
	<path class="st2" d="M704.58,1375.13c1.68-0.67,3.59,0.15,4.26,1.83c0.65,1.62-0.09,3.46-1.66,4.19l-0.17,0.07l-5.46,2.18
		c-1.68,0.67-3.59-0.15-4.26-1.83c-0.65-1.62,0.09-3.46,1.66-4.19l0.17-0.07L704.58,1375.13z M711.69,1384.97
		c1.68-0.67,3.59,0.15,4.26,1.83c0.65,1.62-0.09,3.46-1.66,4.19l-0.17,0.07l-5.46,2.18c-1.68,0.67-3.59-0.15-4.26-1.83
		c-0.65-1.62,0.09-3.46,1.66-4.19l0.17-0.07L711.69,1384.97z M719.33,1394.8c1.68-0.67,3.59,0.14,4.26,1.82
		c0.65,1.62-0.09,3.46-1.65,4.19l-0.17,0.07l-5.46,2.19c-1.68,0.67-3.59-0.14-4.26-1.82c-0.65-1.62,0.09-3.46,1.65-4.19l0.17-0.07
		L719.33,1394.8z M729.17,1404.64c1.68-0.67,3.59,0.15,4.26,1.83c0.65,1.62-0.09,3.46-1.66,4.19l-0.17,0.07l-5.46,2.18
		c-1.68,0.67-3.59-0.15-4.26-1.83c-0.65-1.62,0.09-3.46,1.66-4.19l0.17-0.07L729.17,1404.64z M737.91,1413.38
		c1.68-0.67,3.59,0.14,4.26,1.82c0.65,1.62-0.09,3.46-1.65,4.19l-0.17,0.07l-5.47,2.19c-1.68,0.67-3.59-0.14-4.26-1.82
		c-0.65-1.62,0.09-3.46,1.65-4.19l0.17-0.07L737.91,1413.38z"/>
	
		<ellipse transform="matrix(0.0709 -0.9975 0.9975 0.0709 -801.7031 1955.0068)" class="st0" cx="648.59" cy="1407.85" rx="19.67" ry="19.67"/>
	<path class="st2" d="M648.01,1393.14c0.45-0.78,1.61-0.71,1.96,0.12l3.27,7.79c0.14,0.33,0.43,0.57,0.79,0.64l8.26,1.72
		c0.89,0.19,1.18,1.31,0.49,1.9l-6.39,5.51c-0.27,0.24-0.41,0.59-0.37,0.95l0.92,8.39c0.1,0.9-0.88,1.53-1.65,1.06l-7.22-4.38
		c-0.31-0.19-0.69-0.21-1.02-0.06l-7.7,3.46c-0.83,0.37-1.72-0.36-1.51-1.25l1.93-8.21c0.08-0.35-0.01-0.72-0.25-0.99l-5.67-6.25
		c-0.61-0.67-0.18-1.75,0.72-1.82l8.41-0.7c0.36-0.03,0.68-0.24,0.86-0.55L648.01,1393.14z"/>
</g>
<circle class="st0" cx="552.6" cy="1408.9" r="19.67"/>
<g>
	<g transform="translate(363 131)">
		<g transform="translate(36.438 676.828)">
			<path class="st3" d="M257.18,363.17c15.23,0,27.61,12.22,27.85,27.4v0.46v156.83c0,15.39-12.47,27.86-27.86,27.86
				c-15.23,0-27.61-12.22-27.85-27.4v-0.46V391.03C229.32,375.65,241.8,363.17,257.18,363.17z M149.88,363.17
				c15.23,0,27.61,12.22,27.85,27.4v0.46v154.76c0,15.39-12.47,27.86-27.86,27.86c-15.23,0-27.61-12.22-27.85-27.4v-0.46V391.03
				C122.02,375.65,134.49,363.17,149.88,363.17z"/>
			<path class="st3" d="M395.44,533.16l-44.37-397.18L318.57,0L200.5,33.39c-16.41,152.82,2.29,546.19,23.62,552.11
				S388.6,546.31,395.44,533.16z"/>
			<path class="st3" d="M15.75,533.16l44.37-397.18L92.62,0l118.07,33.39c16.41,152.82-2.29,546.19-23.62,552.11
				S22.59,546.31,15.75,533.16z"/>
		</g>
		<g transform="translate(.57 274.445)">
			<path class="st4" d="M80.7,185.15c8.4-14.89,27.28-20.15,42.17-11.75s20.15,27.28,11.75,42.17
				C114.94,250.45,99.19,303.88,91,360.14c-7.27,49.96-7.2,95.15-1.16,112.65l0.18,0.52c5.84,16.07-2.45,33.82-18.51,39.67
				c-16.07,5.84-33.82-2.45-39.67-18.51c-10.64-29.27-10.82-83.39-2.11-143.25C38.94,288.03,56.75,227.6,80.7,185.15z"/>
			<path class="st5" d="M203.35,241.86c17.14-46.17-9.16-97.08-56.73-109.83c-44.59-11.95-90.43,14.51-102.38,59.11L8.09,326.08
				c-13.61,50.79,26.53,99.99,79.02,96.85c30.48-1.82,57-21.47,67.62-50.09L203.35,241.86z"/>
			<polygon class="st6" points="50.11,299.21 124.91,321.91 43.4,314.17 			"/>
			<path class="st5" d="M4.29,452.94c-6.25-19.03-5.09-89.27,2.72-120.29l108.58,11.96c-11.91,39.29,8.79,36,0,86.67
				C95.09,432.3,12.1,476.72,4.29,452.94z"/>
			<polygon class="st7" points="408.61,332.22 350.83,329.13 400.87,345.12 			"/>
			<path class="st4" d="M350.06,163.91c14.89-8.4,33.77-3.14,42.17,11.75c23.95,42.46,41.76,102.88,50.96,166.08
				c8.71,59.85,8.53,113.98-2.11,143.25c-5.84,16.07-23.6,24.35-39.67,18.51c-15.9-5.78-24.19-23.25-18.68-39.18l0.17-0.48
				c6.22-17.12,6.37-62.71-0.97-113.17c-8.19-56.26-23.94-109.69-43.61-144.58C329.91,191.19,335.17,172.31,350.06,163.91z"/>
			<path class="st5" d="M263.73,241.32c-14.42-46.7,12.84-96.04,60.06-108.69c45.87-12.29,93.04,14.83,105.5,60.65l31.66,116.45
				c17.27,63.52-41.79,121.38-104.94,102.81c-27.07-7.96-48.35-28.95-56.68-55.92L263.73,241.32z"/>
			<polygon class="st6" points="422.53,299.21 347.73,321.91 429.24,314.17 			"/>
			<path class="st5" d="M472.06,432.82c6.36-19.03-1.3-83.5-9.25-114.52l-111.76,26.3c12.12,39.29-8.94,18.98,0,69.64
				C371.91,415.28,464.11,456.6,472.06,432.82z"/>
			<path class="st2" d="M88.94,181.62c-4.09-28.06,15.24-54.17,43.27-58.44L236.3,107.3l104.09,15.87
				c28.04,4.27,47.36,30.38,43.27,58.44l-13.24,90.76l15.55,136.08c0.59,5.17-1.65,10.26-5.86,13.32l-21.56,15.68H115.07
				l-17.9-15.91c-3.35-2.98-5.13-7.35-4.81-11.82l9.81-137.35L88.94,181.62z"/>
			<path class="st4" d="M238.27,0h0.18c21.6,0,39.12,17.51,39.12,39.12v121.93c0,21.6-17.51,39.12-39.12,39.12h-0.18
				c-21.6,0-39.12-17.51-39.12-39.12V39.12C199.16,17.51,216.67,0,238.27,0z"/>
			<g transform="translate(148.733 119.264)">
				<path class="st8" d="M266.3,343.96c-0.13-3.99,3-7.32,6.98-7.45l12.24-0.4c3.84-0.12,7.11,2.78,7.43,6.61l6.31,75.15
					c0.35,4.12-2.83,7.69-6.96,7.82l-16.12,0.52c-3.99,0.13-7.32-3-7.45-6.99L266.3,343.96z"/>
				<path class="st9" d="M215.51,325.42c0-3.99,3.23-7.22,7.22-7.22h44.88c3.78,0,6.92,2.92,7.2,6.68l9.24,123.81
					c0.31,4.19-3,7.76-7.2,7.76h-54.12c-3.99,0-7.22-3.23-7.22-7.22L215.51,325.42L215.51,325.42z"/>
				<path class="st10" d="M16.25,0c6.2,34.72,31.71,94.09,67.03,150.38c44.13,70.33,99.37,130.92,162.19,172.55l1.91,1.26l3.73,2.44
					v37.48H234.6v-28.58l-0.21-0.14c-63.48-42.56-119.11-103.51-163.72-174.05l-1.38-2.18C33.3,101.79,7.14,41.17,0.2,4.02L0,2.9
					L16.25,0z"/>
			</g>
			<path class="st11" d="M292.25,112.36l-8.04-3.33c-3.46-1.43-7.37,0.61-8.16,4.27l-4.66,21.56
				c-3.62,16.73-18.42,28.68-35.54,28.68c-15.98,0-30.09-10.43-34.77-25.71l-7.23-23.61c-1.24-4.05-5.94-5.88-9.6-3.74l-2.4,1.41
				c-3.19,1.87-4.75,5.63-3.81,9.21l9.95,38.1c2.25,8.61,6.59,16.54,12.63,23.07l1.63,1.76c9.21,9.96,22.16,15.62,35.73,15.62
				c16.91,0,32.61-8.78,41.46-23.19l2.96-4.82c3.3-5.37,5.71-11.23,7.15-17.37l7.58-32.41C298.05,117.93,295.99,113.9,292.25,112.36
				z"/>
			<polygon class="st11" points="239.4,190.87 216.18,190.87 167.18,280.12 239.4,280.12 			"/>
			<polygon class="st11" points="242.49,190.87 219.28,190.87 190.91,321.91 263.13,321.91 			"/>
			<polygon class="st1" points="228.05,165.08 247.62,165.08 288.92,235.24 228.05,235.24 			"/>
		</g>
		<g transform="translate(68.698)">
			<path class="st12" d="M42.3,408.57c6.13-79.1,41.74-237.3,135.16-237.3C151.51,256.59,76.54,365.02,42.3,408.57z"/>
			<path class="st12" d="M309.53,413.73c-60.87-77.9-30.19-242.46-138.25-242.46C201.29,248.06,181.07,363.18,309.53,413.73z"/>
			<path class="st12" d="M295.6,355.95c-43.61-59.67-27.3-184.68-104.72-184.68C212.38,230.09,203.57,317.23,295.6,355.95z"/>
			<path class="st13" d="M51.59,268.26C23.1,268.26,0,245.16,0,216.67s23.1-51.59,51.59-51.59s51.59,23.1,51.59,51.59
				S80.08,268.26,51.59,268.26z M290.95,268.26c28.49,0,51.59-23.1,51.59-51.59s-23.1-51.59-51.59-51.59s-51.59,23.1-51.59,51.59
				S262.46,268.26,290.95,268.26z"/>
			<path class="st4" d="M30.87,155.51C25.88,74.57,90.18,6.19,171.27,6.19s145.39,68.38,140.4,149.32l-6.3,102.18
				c-3.14,51-45.26,95.8-92.36,115.6c-33.29,13.99-50.18,13.99-83.47,0c-47.1-19.8-89.22-64.6-92.36-115.6L30.87,155.51z"/>
			<path class="st14" d="M126.9,291.99v10.62c0,16.35,19.87,29.6,44.36,29.6c24.51,0,44.36-13.25,44.36-29.6v-10.62H126.9z"/>
			<g transform="translate(126.302 291)">
				<path class="st15" d="M44.97,50.72c14.78,0,26.76-4.35,26.76-9.72s-11.98-9.72-26.76-9.72S18.22,35.63,18.22,41
					S30.19,50.72,44.97,50.72z"/>
			</g>
			<rect x="126.9" y="291.99" class="st6" width="88.73" height="12.2"/>
			<path d="M114.52,188.81c2.85,0,5.16,2.31,5.16,5.16c0,2.78-2.19,5.04-4.94,5.15h-0.22H83.57c-2.85,0-5.16-2.31-5.16-5.16
				c0-2.78,2.19-5.04,4.94-5.15h0.22H114.52z M258.97,188.81c2.85,0,5.16,2.31,5.16,5.16c0,2.78-2.19,5.04-4.94,5.15h-0.22h-30.95
				c-2.85,0-5.16-2.31-5.16-5.16c0-2.78,2.19-5.04,4.94-5.15h0.22H258.97z"/>
			<path d="M232.14,180.56c6.74,0,12.22,5.38,12.38,12.08v0.31v19.6c0,6.84-5.54,12.38-12.38,12.38c-6.74,0-12.22-5.38-12.38-12.08
				v-0.31v-19.6C219.76,186.1,225.31,180.56,232.14,180.56z M110.4,180.56c6.74,0,12.22,5.38,12.38,12.07v0.31v19.6
				c0,6.84-5.54,12.38-12.38,12.38c-6.74,0-12.22-5.38-12.38-12.07v-0.31v-19.6C98.02,186.1,103.56,180.56,110.4,180.56z"/>
			<path class="st16" d="M232.63,140.05c7.03-0.58,12.99-0.53,17.71,0.38c4.79,0.92,9.03,2.26,12.76,3.93
				c2.7,1.21,4.99,2.52,6.89,3.87c1.23,0.87,2.11,1.62,2.65,2.16c2.42,2.42,2.42,6.34,0,8.75c-2.36,2.36-6.14,2.42-8.57,0.18
				l-0.19-0.18l-0.08-0.07c-0.24-0.21-0.57-0.46-0.97-0.74c-1.25-0.88-2.84-1.8-4.79-2.67c-2.86-1.28-6.2-2.33-10.04-3.07
				c-3.38-0.65-8.34-0.7-14.35-0.2c-3.97,0.33-8.23,0.88-12.6,1.59c-2.29,0.37-4.49,0.77-6.53,1.17l-1.63,0.33
				c-0.37,0.08-0.72,0.15-1.04,0.22l-1.04,0.22c-3.33,0.75-6.65-1.34-7.4-4.67c-0.74-3.26,1.25-6.5,4.45-7.35l0.3-0.07l0.78-0.17
				c0.67-0.14,1.43-0.3,2.28-0.47c2.42-0.49,5.06-0.97,7.84-1.42C223.73,141,228.3,140.41,232.63,140.05z M97.36,140.43
				c4.71-0.91,10.68-0.97,17.71-0.38c4.32,0.36,8.9,0.95,13.57,1.71c2.78,0.45,5.42,0.94,7.84,1.42l1.94,0.4l1.2,0.26
				c3.33,0.75,5.43,4.07,4.67,7.4c-0.74,3.26-3.92,5.33-7.18,4.72l-0.94-0.2c-0.41-0.09-0.86-0.18-1.35-0.28l-0.77-0.16
				c-2.28-0.46-4.78-0.92-7.4-1.34c-4.37-0.71-8.63-1.26-12.6-1.59c-6.01-0.5-10.96-0.45-14.34,0.2c-3.85,0.74-7.18,1.79-10.04,3.07
				c-1.95,0.87-3.54,1.78-4.79,2.67c-0.32,0.23-0.59,0.43-0.81,0.61l-0.26,0.21l0.02-0.02c-2.42,2.42-6.34,2.42-8.75,0
				s-2.42-6.34,0-8.75l0.27-0.26c0.54-0.51,1.33-1.16,2.38-1.9c1.9-1.34,4.19-2.66,6.89-3.87
				C88.33,142.69,92.58,141.35,97.36,140.43z"/>
			<path class="st17" d="M163.97,210.77l14.59,9.73c-4.96,7.44-8.85,18.61-8.85,26.73l0.01,0.64c0.16,7.37,3.07,10.49,11.49,10.58
				h0.36v17.54c-19.13,0-29.41-11.56-29.41-28.76c0-11.66,4.85-25.81,11.44-35.92L163.97,210.77z"/>
			<path class="st12" d="M172.8,41.87V18.22V3.67c-11.76-5.73-34.76-3.97-54.25,0C93.22,8.83,48.11,50.56,37.28,89.76
				c-10.88,39.4-10.24,48.52-8.28,76.06l0.06,0.87c10.33,2.65,13.23,16.6,13.23,10.25c0-7.94-8.9-61.99,52.64-107.3
				C133.45,41.27,172.8,47.16,172.8,41.87z M175.4,41.87V18.22V3.67c11.76-5.73,34.76-3.97,54.26,0
				c25.33,5.16,70.43,46.89,81.26,86.09c10.88,39.4,10.24,48.52,8.29,76.06l-0.06,0.87c-10.33,2.65-13.22,16.6-13.22,10.25
				c0-7.94,13.56-63.54-47.98-108.85C219.41,39.73,175.4,47.16,175.4,41.87z"/>
		</g>
	</g>
</g>
<path class="st2" d="M492.35,1378.01c0.65-1.62,2.45-2.44,4.09-1.89l0.17,0.06l5.46,2.18c1.68,0.67,2.5,2.58,1.83,4.26
	c-0.65,1.62-2.45,2.44-4.09,1.89l-0.17-0.06l-5.47-2.18C492.5,1381.6,491.68,1379.69,492.35,1378.01z M485.25,1387.85
	c0.65-1.62,2.45-2.44,4.09-1.89l0.17,0.06l5.47,2.18c1.68,0.67,2.5,2.58,1.83,4.26c-0.65,1.62-2.45,2.44-4.09,1.89l-0.17-0.06
	l-5.46-2.18C485.39,1391.44,484.58,1389.53,485.25,1387.85z M477.6,1397.67c0.65-1.62,2.45-2.44,4.09-1.89l0.17,0.06l5.46,2.19
	c1.68,0.67,2.5,2.58,1.82,4.26c-0.65,1.62-2.45,2.44-4.09,1.89l-0.17-0.06l-5.47-2.19C477.74,1401.26,476.92,1399.35,477.6,1397.67z
	 M467.76,1407.52c0.65-1.62,2.45-2.44,4.09-1.89l0.17,0.06l5.47,2.18c1.68,0.67,2.5,2.58,1.83,4.26c-0.65,1.62-2.45,2.44-4.09,1.89
	l-0.17-0.06l-5.46-2.18C467.91,1411.11,467.09,1409.2,467.76,1407.52z M459.02,1416.25c0.65-1.62,2.45-2.44,4.09-1.89l0.17,0.06
	l5.47,2.19c1.68,0.67,2.5,2.58,1.82,4.26c-0.65,1.62-2.45,2.44-4.09,1.89l-0.17-0.06l-5.47-2.19
	C459.16,1419.84,458.34,1417.93,459.02,1416.25z"/>
<path class="st2" d="M553.18,1394.19c-0.45-0.78-1.61-0.71-1.96,0.12l-3.27,7.79c-0.14,0.33-0.43,0.57-0.79,0.64l-8.26,1.72
	c-0.89,0.19-1.18,1.31-0.49,1.9l6.39,5.51c0.27,0.24,0.41,0.59,0.37,0.95l-0.92,8.39c-0.1,0.9,0.88,1.53,1.65,1.06l7.22-4.38
	c0.31-0.19,0.69-0.21,1.01-0.06l7.7,3.46c0.83,0.37,1.72-0.36,1.51-1.25l-1.93-8.21c-0.08-0.35,0.01-0.72,0.25-0.99l5.67-6.25
	c0.61-0.67,0.18-1.75-0.72-1.82l-8.41-0.7c-0.36-0.03-0.68-0.24-0.86-0.55L553.18,1394.19z"/>
</svg>
