<?xml version="1.0" encoding="utf-8"?>
<!-- Generator: Adobe Illustrator 27.0.0, SVG Export Plug-In . SVG Version: 6.00 Build 0)  -->
<svg version="1.1" id="character" xmlns="http://www.w3.org/2000/svg" xmlns:xlink="http://www.w3.org/1999/xlink" x="0px" y="0px"
	 viewBox="0 0 1200 1600" style="enable-background:new 0 0 1200 1600;" xml:space="preserve">
<style type="text/css">
	.st0{fill:#C4845C;}
	.st1{fill:#8F9194;}
	.st2{fill:#A3A5A8;}
	.st3{fill:#E0E2E4;}
	.st4{fill:#C2C6CA;}
	.st5{fill:#9EA5AC;}
	.st6{fill:#F1F5F9;}
	.st7{fill:#EBE5D9;}
	.st8{fill:#231F20;}
	.st9{fill:#EBBAAA;}
	.st10{opacity:0.6;fill:#C4845C;enable-background:new    ;}
	.st11{fill:#393939;}
	.st12{fill:#FCEBE6;}
	.st13{fill:#F9EAE6;}
	.st14{fill:#C99475;}
	.st15{fill:#6E6C6C;}
	.st16{fill:#CB9477;}
</style>
<g>
	<g transform="translate(335 115)">
		<g transform="translate(76.917 845.835)">
			<path class="st0" d="M223.08,330.87c1.37-14.38,14.14-24.93,28.52-23.57c14.24,1.35,24.72,13.88,23.6,28.09l-0.04,0.43
				l-12.11,127.41c-1.37,14.38-14.14,24.93-28.52,23.57c-14.24-1.35-24.72-13.88-23.6-28.09l0.04-0.43L223.08,330.87z
				 M124.57,307.31c14.24-1.35,26.9,8.97,28.47,23.14l0.04,0.43l12.11,127.41c1.37,14.38-9.18,27.15-23.57,28.52
				c-14.24,1.35-26.9-8.97-28.47-23.14l-0.04-0.43L101,335.83C99.63,321.44,110.19,308.67,124.57,307.31z"/>
			<path class="st1" d="M188.08,99.36c61.54,0,111.42-22.77,111.42-50.87S249.62-2.37,188.08-2.37
				C126.55-2.37,76.66,20.4,76.66,48.5S126.55,99.36,188.08,99.36z"/>
			<polygon class="st1" points="322.76,-0.43 196.8,-0.43 196.8,422 252.03,431.69 288.04,422 			"/>
			<polygon class="st2" points="323.73,-0.43 265.59,-0.43 252.03,431.69 287.88,422.49 			"/>
			<polygon class="st1" points="53.41,-0.43 179.36,-0.43 179.36,422 124.14,431.69 88.12,422 			"/>
			<polygon class="st2" points="52.44,-0.43 110.57,-0.43 124.14,431.69 88.29,422.49 			"/>
			<path class="st3" d="M376.05,500.94c0-29.56-19.09-33.16-50.22-43.3c-15.24-4.96-30.8-9.28-46.58-11.89
				c-9.92-1.64-12.58,7.04-30.01,7.04c-15.54,0-34.93-7.66-38.94-9.32c-0.5-0.2-1.1-0.39-1.5-0.02c-0.1,0.09-0.18,0.19-0.24,0.32
				c-1.86,3.79-11.59,24.47-11.59,41.03c0,12.65-1.09,25.1,2.42,31.54c1.58,2.91,11.47,4.49,14.79,4.49h156.49
				C373.64,520.83,376.05,503.89,376.05,500.94z"/>
			<g transform="translate(196.683 441.81)">
				<g>
					<g transform="translate(-9.689 -1.938)">
						<path class="st4" d="M166.3,40.84c15,0,19.2-8.66,20.81-10.11c2.9,3.36,0.48,16.95,2.42,23.11s-0.81,12.2-2.42,14.45
							L52.08,74.55c-0.81-12.85-1.94-38.52,0-38.52c2.42,0,17.91-20.71,26.14-21.18c6.58-0.39,38.56,7.86,53.73,12.03
							c-1.94,1.93-5.13,11.74-6.29,16.37c-1.45,5.77-1.94,5.77,3.39,7.22c5.32,1.44,6.29-9.63,12.1-9.63
							C141.15,40.84,166.3,40.84,166.3,40.84z"/>
						<path class="st5" d="M63.69,36.51C61.37,32.65,24,27.2,9,25.44l-6.78,41.4l75.51,4.34C74.02,61.23,66.02,40.36,63.69,36.51z"
							/>
						<path class="st4" d="M46.27,9.06C34.65,8.29,24.97,2.01,21.1-1.53C17.23,2.33,7.65,12.92,9.97,16.77
							c2.9,4.82,25.17,8.67,34.85,8.67S60.79,10.03,46.27,9.06z"/>
						<path class="st3" d="M103.38,66.36c24.68-0.97,45.98,4.82,73.09-0.97c48.4-5.29,23.53-2.15,35.82,21.27H22.47
							C3.68,82.25-2.56,55.01,11.42,57.22C41.91,62.02,84.5,67.1,103.38,66.36z"/>
						<path class="st6" d="M4.16,65.39c6.58,2.7,95.83,2.9,98.74,0.97c-6.78-1.44-56.65-7.07-67.76-7.7
							c-16.94-0.97-23.39-2.25-30.98-1.93C1.42,58.66-2.42,62.7,4.16,65.39z"/>
					</g>
				</g>
			</g>
			<path class="st7" d="M279.77,442.53c1.41-0.85,3.24-0.4,4.1,1.01c0.85,1.41,0.4,3.24-1.01,4.1l-0.46,0.27
				c-1.1,0.64-3.53,2.01-4.32,2.49c-0.22,0.14-0.44,0.27-0.65,0.4l-0.22,0.14l21.06-4.82c2.67-0.61,4.66,2.39,3.13,4.59l-0.1,0.13
				l-5.75,7.47l23.55-6.66c2.91-0.82,5.03,2.7,3.02,4.88l-0.12,0.12l-12.87,12.7c-1.17,1.16-3.06,1.15-4.22-0.03
				c-1.11-1.13-1.14-2.91-0.11-4.08l0.14-0.14l4.61-4.55l-21.06,5.96c-2.71,0.77-4.85-2.29-3.27-4.56l0.1-0.13l6.19-8.04
				l-21.26,4.87c-1.81,0.41-3.54-0.9-3.65-2.73l-0.01-0.18c0-3.99,2.7-6.9,7.69-10.02l0.71-0.44
				C276.02,444.67,279.29,442.82,279.77,442.53z"/>
			<path class="st7" d="M286.66,418.13c-7.54,0-13.26,6.37-13.41,14.97l-0.02,2l-0.06,3.84c0,0.14,0,0.28,0,0.43
				c0.01,2,0.12,3.38,0.42,4.51c0.35,1.32,0.95,2.28,1.9,2.9c0.92,0.65,2.32,0.99,4.21,0.99c3.94,0,8.65-1.46,12.32-3.89
				c4.14-2.74,6.56-6.39,6.56-10.44c0-4.39-1.07-8.21-3.08-10.93C293.41,419.67,290.38,418.13,286.66,418.13z M286.66,424.09
				c1.81,0,3.06,0.64,4.04,1.96c1.19,1.61,1.92,4.19,1.92,7.39c0,1.81-1.28,3.74-3.89,5.47c-2.7,1.79-6.27,2.89-9.03,2.89
				l-0.35-0.01l-0.09-0.01l-0.01-0.1l-0.04-0.4c-0.03-0.43-0.06-0.96-0.06-1.6v-1.24l0.06-4.04v-0.96
				C279.21,427.81,282.49,424.09,286.66,424.09z"/>
			<path class="st7" d="M258.68,431.07c-2.52,1.11-4.12,3.06-4.69,5.61c-0.55,2.43-0.13,5.31,1.19,8.26
				c1.21,2.71,3.95,4.43,7.57,5.02c3.22,0.52,6.85,0.08,9.53-1.11l0.28-0.13c1.09-0.51,1.82-1.09,2.25-1.75l-0.37-0.24l0.74-0.55
				l0.05-0.18c0.01-0.02,0.01-0.05,0.02-0.07l0.03-0.14c0.08-0.43,0.06-0.89-0.02-1.39c-0.13-0.78-0.42-1.66-0.93-2.83l-0.45-1.01
				l-1.13-2.42l-0.39-0.86C269.74,431.4,263.86,428.78,258.68,431.07z M266.8,439.48l0.12,0.25l0.27,0.59
				c0.14,0.3,0.28,0.6,0.43,0.94l1.03,2.2l0.14,0.31l-0.1,0.03c-1.5,0.41-3.35,0.53-4.97,0.27c-1.8-0.3-2.79-0.92-3.08-1.57
				c-0.82-1.84-1.05-3.44-0.81-4.51c0.16-0.7,0.49-1.11,1.28-1.46C263.07,435.65,265.43,436.66,266.8,439.48z"/>
			<path class="st3" d="M285.08,466.35l-11.58-5.18l-15,27.25l11.14,4.44l15.86-9.31l-8.15,12.97l11.02,5.19l14.46-27.22
				l-11.54-5.47l-13.96,8.09L285.08,466.35z M274.34,463.67l7.78,3.48l-11.62,16.18l20.89-12.12l8.79,4.16l-12.64,23.8l-7.37-3.47
				l11.21-17.84l-21.89,12.84l-8.22-3.28L274.34,463.67z M0.12,500.94c0-29.56,19.09-33.16,50.22-43.3
				c15.24-4.96,30.8-9.28,46.58-11.89c9.92-1.64,12.58,7.04,30.01,7.04c15.54,0,34.93-7.66,38.94-9.32c0.5-0.2,1.1-0.39,1.5-0.02
				c0.1,0.09,0.18,0.19,0.24,0.32c1.86,3.79,11.59,24.47,11.59,41.03c0,12.65,1.09,25.1-2.42,31.54
				c-1.58,2.91-11.47,4.49-14.79,4.49H5.5C2.53,520.83,0.12,503.89,0.12,500.94z"/>
			<g transform="translate(0 441.81)">
				<g>
					<g transform="translate(-23.253 -1.938)">
						<path class="st4" d="M46.12,40.84c-15,0-19.2-8.66-20.81-10.11c-2.9,3.36-0.48,16.95-2.42,23.11s0.81,12.2,2.42,14.45
							l135.04,6.26c0.81-12.85,1.94-38.52,0-38.52c-2.42,0-17.91-20.71-26.14-21.18c-6.58-0.39-38.56,7.86-53.73,12.03
							c1.94,1.93,5.13,11.74,6.29,16.37c1.45,5.77,1.94,5.77-3.39,7.22c-5.32,1.44-6.29-9.63-12.1-9.63
							C71.28,40.84,46.12,40.84,46.12,40.84z"/>
						<path class="st5" d="M148.73,36.51c2.32-3.86,39.69-9.31,54.69-11.07l6.78,41.4l-75.51,4.34
							C138.41,61.23,146.41,40.36,148.73,36.51z"/>
						<path class="st4" d="M166.16,9.06c11.62-0.77,21.3-7.05,25.17-10.59c3.87,3.86,13.45,14.45,11.13,18.29
							c-2.9,4.82-25.17,8.67-34.85,8.67C157.93,25.44,151.64,10.03,166.16,9.06z"/>
						<path class="st3" d="M109.04,66.36c-24.68-0.97-45.98,4.82-73.09-0.97c-48.4-5.29-23.53-2.15-35.82,21.27h189.81
							c18.8-4.41,25.03-31.65,11.05-29.44C170.51,62.02,127.93,67.1,109.04,66.36z"/>
						<path class="st6" d="M208.26,65.39c-6.58,2.7-95.83,2.9-98.74,0.97c6.78-1.44,56.65-7.07,67.76-7.7
							c16.94-0.97,23.39-2.25,30.98-1.93C211.01,58.66,214.85,62.7,208.26,65.39z"/>
					</g>
				</g>
			</g>
			<path class="st7" d="M92.3,443.55c0.85-1.41,2.69-1.86,4.1-1.01l0.85,0.49c1.18,0.67,3.17,1.81,3.94,2.27l0.71,0.44
				c4.99,3.12,7.69,6.03,7.69,10.02c0,1.86-1.67,3.25-3.48,2.94l-0.17-0.03l-21.26-4.87l6.19,8.04c1.72,2.23-0.33,5.35-3.02,4.73
				l-0.16-0.04l-21.06-5.96l4.61,4.55c1.13,1.11,1.18,2.9,0.16,4.08l-0.13,0.14c-1.11,1.13-2.9,1.18-4.08,0.16l-0.14-0.13
				l-12.87-12.7c-2.16-2.13-0.14-5.7,2.75-5.04l0.16,0.04l23.55,6.66l-5.75-7.47c-1.67-2.17,0.22-5.23,2.87-4.76l0.16,0.03
				l21.06,4.82l-0.54-0.34l-0.6-0.36c-1.18-0.69-3.98-2.28-4.52-2.6C91.9,446.79,91.45,444.96,92.3,443.55z"/>
			<path class="st7" d="M89.51,418.13c-3.72,0-6.75,1.55-8.85,4.39c-2.01,2.71-3.08,6.53-3.08,10.92c0,4.05,2.42,7.7,6.56,10.44
				c3.68,2.43,8.38,3.89,12.33,3.89c1.9,0,3.29-0.34,4.28-1.04c0.88-0.58,1.48-1.53,1.83-2.86c0.28-1.06,0.4-2.33,0.42-4.12v-1.22
				l-0.06-3.98l-0.01-1.13C102.92,424.66,97.14,418.13,89.51,418.13z M89.51,424.09c4.17,0,7.45,3.71,7.45,9.35l0.01,1.31l0.06,4.07
				c0,0.18,0,0.35,0,0.53v0.3c-0.01,0.76-0.04,1.37-0.08,1.84l-0.03,0.3l-0.09,0.01l-0.35,0.01c-2.75,0-6.32-1.11-9.03-2.9
				c-2.6-1.72-3.88-3.66-3.88-5.46c0-3.19,0.73-5.77,1.91-7.38C86.44,424.73,87.69,424.09,89.51,424.09z"/>
			<path class="st7" d="M103.36,438.26l-1.2,2.56c-0.07,0.15-0.12,0.27-0.2,0.44c-0.59,1.33-0.93,2.29-1.06,3.14l-0.03,0.25
				c-0.04,0.33-0.04,0.64-0.01,0.93l0.04,0.25l0.03,0.16c0.02,0.1,0.05,0.19,0.12,0.38l0.6,0.42l-0.29,0.19
				c0.47,0.71,1.29,1.33,2.55,1.88c2.66,1.18,6.29,1.62,9.51,1.1c3.63-0.59,6.36-2.31,7.58-5.02c1.32-2.95,1.74-5.83,1.19-8.26
				c-0.57-2.54-2.17-4.5-4.7-5.61c-5.08-2.26-10.85,0.25-13.55,5.94L103.36,438.26z M109.11,440.02l0.13-0.28
				c1.35-3.02,3.79-4.11,5.82-3.21c0.8,0.35,1.13,0.76,1.29,1.46c0.24,1.07,0.01,2.67-0.81,4.51c-0.29,0.65-1.28,1.27-3.09,1.57
				l-0.35,0.05c-1.53,0.19-3.22,0.06-4.61-0.31l-0.11-0.03l0.47-1.03l0.86-1.84C108.85,440.6,108.98,440.31,109.11,440.02z"/>
			<path class="st3" d="M117.66,488.43l-15-27.25l-11.58,5.18l7.74,10.77l-13.96-8.09l-11.54,5.47l14.46,27.22l11.02-5.19
				l-8.15-12.97l15.87,9.31L117.66,488.43z M101.83,463.67l13.08,23.77l-8.22,3.27L84.8,477.87l11.21,17.84l-7.37,3.47L76,475.38
				l8.79-4.16l20.89,12.12l-11.62-16.18L101.83,463.67z"/>
		</g>
		<g transform="translate(0 421.464)">
			<path class="st0" d="M121.39,108.88c9.73-17.24,31.59-23.34,48.84-13.61s23.34,31.59,13.61,48.84
				c-17.83,31.61-36.49,90.29-48.88,151.97l-0.6,3c-5.4,27.41-9.14,53.45-10.76,74.91l-0.09,1.17c-0.79,10.96-1,20.42-0.64,27.92
				l0.07,1.26c0.16,2.67,0.39,4.99,0.67,6.91l0.16,0.98c0.22,1.3,0.43,2.13,0.52,2.39c6.77,18.61-2.83,39.18-21.44,45.94
				s-39.18-2.83-45.94-21.44c-10.52-28.93-6.31-87.14,7.75-157.13C78.4,213.52,99.14,148.31,121.39,108.88z M359.78,95.27
				c17.24-9.73,39.11-3.63,48.84,13.61c22.25,39.44,42.98,104.64,56.73,173.09c14.05,69.99,18.27,128.2,7.75,157.13
				c-6.77,18.61-27.33,28.21-45.94,21.44c-18.42-6.7-28.01-26.92-21.64-45.38l0.2-0.56c0.11-0.29,0.35-1.32,0.61-2.93
				c0.36-2.29,0.64-5.19,0.81-8.6l0.06-1.39c0.28-7.27,0.05-16.23-0.7-26.53l-0.18-2.34c-1.7-21.62-5.5-47.77-10.97-75.23l-0.3-1.5
				C382.66,234.4,364,175.72,346.17,144.11C336.44,126.86,342.53,105,359.78,95.27z"/>
			<path class="st8" d="M337.5,41.58L337.5,41.58c-40.23,14.64-60.97,59.12-46.33,99.35l66.28,182.09
				c14.64,40.23,59.12,60.97,99.35,46.33l0,0c40.23-14.64,60.97-59.12,46.33-99.35L436.84,87.91
				C422.2,47.68,377.72,26.94,337.5,41.58z"/>
			<path class="st8" d="M192.5,41.58L192.5,41.58c40.23,14.64,60.97,59.12,46.33,99.35l-66.28,182.09
				c-14.64,40.23-59.12,60.97-99.35,46.33l0,0C32.97,354.71,12.23,310.23,26.87,270L93.16,87.91
				C107.8,47.68,152.28,26.94,192.5,41.58z"/>
			<path class="st8" d="M121.77,94.12c-1.2-24.21,15.68-45.59,39.51-50.03L265,24.76l103.72,19.33
				c23.83,4.44,40.71,25.82,39.51,50.03l-7.59,152.51l9.25,210.79c0.24,5.51-4.16,10.11-9.68,10.11H129.79
				c-5.52,0-9.92-4.6-9.68-10.11l9.25-210.79L121.77,94.12z"/>
			<path class="st9" d="M226.24,36.39c0-21.4,17.35-38.76,38.76-38.76c21.4,0,38.76,17.35,38.76,38.76v4.84
				c0,21.4-17.35,38.76-38.76,38.76c-21.4,0-38.76-17.35-38.76-38.76L226.24,36.39L226.24,36.39z"/>
		</g>
		<g transform="translate(78.855)">
			<path class="st0" d="M186.15,312.52L186.15,312.52c21.4,0,38.76,17.35,38.76,38.76V462.7c0,21.4-17.35,38.76-38.76,38.76l0,0
				c-21.4,0-38.76-17.35-38.76-38.76V351.27C147.39,329.87,164.74,312.52,186.15,312.52z"/>
			<path class="st10" d="M329.54,297.98c21.4,0,38.76-17.35,38.76-38.76s-17.35-38.76-38.76-38.76c-21.4,0-38.76,17.35-38.76,38.76
				S308.14,297.98,329.54,297.98z M38.88,297.98c-21.41,0-38.76-17.35-38.76-38.75s17.35-38.76,38.76-38.76
				c21.4,0,38.76,17.35,38.76,38.76S60.28,297.98,38.88,297.98z"/>
			<path class="st0" d="M40.81,164.28c0-80.26,65.07-145.33,145.33-145.33s145.33,65.07,145.33,145.33v116.27
				c0,80.27-65.07,145.33-145.33,145.33S40.81,360.81,40.81,280.54V164.28z"/>
			<path class="st11" d="M280.55,169.62c4.81-0.3,8.95,3.35,9.25,8.16c0.29,4.72-3.22,8.8-7.9,9.23l-0.26,0.02l-54.26,3.39
				c-4.81,0.3-8.95-3.35-9.25-8.16c-0.29-4.72,3.22-8.8,7.9-9.23l0.26-0.02L280.55,169.62z M78.62,177.78
				c0.29-4.72,4.29-8.33,8.99-8.17l0.26,0.01l54.26,3.39c4.81,0.3,8.46,4.44,8.16,9.25c-0.29,4.72-4.29,8.33-8.99,8.17l-0.26-0.01
				l-54.26-3.39C81.97,186.73,78.32,182.59,78.62,177.78z"/>
			<path class="st12" d="M281.1,202.06h-62.98c-8.56,0-15.5,6.94-15.5,15.5v25.19c0,19.26,15.62,34.88,34.88,34.88h24.22
				c19.26,0,34.88-15.62,34.88-34.88v-25.19C296.6,209,289.66,202.06,281.1,202.06z M218.12,213.69h62.98
				c2.14,0,3.88,1.73,3.88,3.88v25.19c0,12.84-10.41,23.25-23.25,23.25h-24.22c-12.84,0-23.25-10.41-23.25-23.25v-25.19
				C214.24,215.43,215.98,213.69,218.12,213.69z M150.3,202.06H87.32c-8.56,0-15.5,6.94-15.5,15.5v25.19
				c0,19.26,15.62,34.88,34.88,34.88h24.22c19.26,0,34.88-15.62,34.88-34.88v-25.19C165.8,209,158.86,202.06,150.3,202.06z
				 M87.32,213.69h62.98c2.14,0,3.88,1.73,3.88,3.88v25.19c0,12.84-10.41,23.25-23.25,23.25h-24.22
				c-12.84,0-23.25-10.41-23.25-23.25v-25.19C83.44,215.43,85.18,213.69,87.32,213.69z"/>
			<rect x="159.99" y="217.57" class="st13" width="48.44" height="9.69"/>
			<path d="M247.19,217.57c6.32,0,11.47,5.05,11.62,11.33v0.3v11.63c0,6.42-5.21,11.63-11.63,11.63c-6.32,0-11.47-5.05-11.62-11.33
				v-0.3V229.2C235.56,222.77,240.76,217.57,247.19,217.57z M121.71,217.57c6.32,0,11.47,5.05,11.62,11.33v0.3v11.63
				c0,6.42-5.21,11.63-11.63,11.63c-6.32,0-11.47-5.05-11.62-11.33v-0.3V229.2C110.09,222.77,115.29,217.57,121.71,217.57z"/>
			<path class="st14" d="M219.22,341.91c3.56-2.07,8.13-0.85,10.2,2.71c2.07,3.56,0.85,8.13-2.71,10.2l-0.48,0.27
				c-0.15,0.08-0.31,0.17-0.5,0.26c-0.66,0.34-1.43,0.71-2.3,1.11c-2.41,1.09-5.22,2.16-8.42,3.15c-8.97,2.79-19.28,4.45-30.8,4.45
				s-21.82-1.66-30.8-4.45c-3.19-0.99-6-2.07-8.42-3.15c-0.73-0.33-1.38-0.64-1.96-0.93l-0.34-0.17c-0.44-0.23-0.76-0.4-0.98-0.53
				c-3.56-2.07-4.78-6.63-2.71-10.2c2.02-3.49,6.44-4.73,9.97-2.84l0.43,0.24c0.29,0.15,0.79,0.4,1.5,0.73l0.22,0.1
				c1.87,0.84,4.12,1.7,6.72,2.51c7.58,2.36,16.4,3.78,26.37,3.78c9.96,0,18.79-1.42,26.37-3.78c2.39-0.74,4.47-1.52,6.25-2.3
				l0.48-0.21c0.82-0.37,1.4-0.66,1.72-0.83L219.22,341.91z"/>
			<path class="st15" d="M334.38,129.87c0.23-6.08-4.17-11.13-9.68-11.13c-5.71,0-10.18,5.42-9.64,11.69l9.12,145.04
				c0.15,1.78,1.5,3.13,3.11,3.13c1.68,0,3.06-1.46,3.13-3.31L334.38,129.87z M53.4,129.87c0.23-6.08-4.17-11.13-9.68-11.13
				c-5.71,0-10.18,5.42-9.64,11.69l9.12,145.04c0.15,1.78,1.5,3.13,3.11,3.13c1.68,0,3.06-1.46,3.13-3.31L53.4,129.87z"/>
			<path class="st11" d="M186.57,2.93c25.92-11.74,80.16-5.13,98.3,31.33c31.41,0,61.35,31.32,53.49,69.86
				c15.06,11.92,20.02,36.6,6.68,53.24l-0.41,0.5c-13.85,16.64-12.31,34.04-24.92,16.6c-7.08-12.63-14.27-22.77-21.98-30.9
				l-0.21,1.97c-0.46,4.33-0.9,9.02-1.28,14.13l-1.29-1.73c-20.8-27.8-28-31.14-56.69-33.3c-9.52,7.88-6.26,24.04,13.81,32.92
				c-21.4,0-66.53-8.88-65.26-30.72l-0.52,0.28c-8.59,4.43-18.1,4.38-18.1,27.02c-17.05-18.89-49.09-42.99-83.64-16.89
				c-22.14,16.72-28.27,30.56-33.4,62.42l-0.16,0.97l-11.55-23.52c-2.57-4.49-5.61-11.65-11.37-18.74l-0.41-0.49
				c-13.85-16.64-8.94-41.69,6.27-53.74c-7.85-38.56,22.08-69.87,53.49-69.87C105.66-2.39,160.4-8.88,186.15,3.13L186.57,2.93z"/>
			<path class="st16" d="M177.36,244.97l13.7,9.14c-4.66,6.99-8.31,17.47-8.31,25.1c0,7.36,2.66,10.45,10.79,10.53h0.36v16.47
				c-17.97,0-27.61-10.85-27.61-27.01c0-10.94,4.55-24.23,10.73-33.73L177.36,244.97z"/>
		</g>
	</g>
</g>
</svg>
