<?xml version="1.0" encoding="utf-8"?>
<!-- Generator: Adobe Illustrator 27.0.0, SVG Export Plug-In . SVG Version: 6.00 Build 0)  -->
<svg version="1.1" id="character" xmlns="http://www.w3.org/2000/svg" xmlns:xlink="http://www.w3.org/1999/xlink" x="0px" y="0px"
	 viewBox="0 0 1200 1600" style="enable-background:new 0 0 1200 1600;" xml:space="preserve">
<style type="text/css">
	.st0{fill:#EBBAAA;}
	.st1{fill:#8F9194;}
	.st2{fill:#A3A5A8;}
	.st3{fill:#E0E2E4;}
	.st4{filter:url(#Adobe_OpacityMaskFilter);}
	.st5{fill-rule:evenodd;clip-rule:evenodd;fill:#FFFFFF;}
	.st6{mask:url(#b_00000075131677977263892830000002744224917410082212_);}
	.st7{fill:#C2C6CA;}
	.st8{fill:#9EA5AC;}
	.st9{fill:#F1F5F9;}
	.st10{fill:#EBE5D9;}
	.st11{filter:url(#Adobe_OpacityMaskFilter_00000177482500736731374590000006763193888991720376_);}
	.st12{mask:url(#d_00000160189652888552180990000011166240637227394457_);}
	.st13{fill:#FFFFFF;}
	.st14{opacity:0.5;fill:#DE8E7C;enable-background:new    ;}
	.st15{fill:#F4D5CC;}
	.st16{fill:#393939;}
	.st17{fill:#FCEBE6;}
	.st18{fill:#F9EAE6;}
	.st19{fill:#C99584;}
	.st20{fill:#6E6C6C;}
</style>
<g>
	<g transform="translate(335 115)">
		<g transform="translate(76.917 845.835)">
			<path class="st0" d="M222.96,333.24c1.37-14.38,14.14-24.93,28.52-23.57c14.24,1.35,24.72,13.88,23.6,28.09l-0.04,0.43
				L262.93,465.6c-1.37,14.38-14.14,24.93-28.52,23.57c-14.24-1.35-24.72-13.88-23.6-28.09l0.04-0.43L222.96,333.24z M124.45,309.68
				c14.24-1.35,26.9,8.97,28.47,23.14l0.04,0.43l12.11,127.41c1.37,14.38-9.18,27.15-23.57,28.52c-14.24,1.35-26.9-8.97-28.47-23.14
				l-0.04-0.43l-12.11-127.41C99.51,323.81,110.07,311.04,124.45,309.68z"/>
			<path class="st1" d="M187.96,101.73c61.54,0,111.42-22.77,111.42-50.87S249.5,0,187.96,0C126.43,0,76.54,22.77,76.54,50.87
				S126.43,101.73,187.96,101.73z"/>
			<polygon class="st1" points="322.64,1.94 196.68,1.94 196.68,424.37 251.91,434.06 287.92,424.37 			"/>
			<polygon class="st2" points="323.61,1.94 265.47,1.94 251.91,434.06 287.76,424.86 			"/>
			<polygon class="st1" points="53.29,1.94 179.24,1.94 179.24,424.37 124.02,434.06 88,424.37 			"/>
			<polygon class="st2" points="52.32,1.94 110.45,1.94 124.02,434.06 88.17,424.86 			"/>
			<path class="st3" d="M375.93,503.31c0-29.56-19.09-33.16-50.22-43.3c-15.24-4.96-30.8-9.28-46.58-11.89
				c-9.92-1.64-12.58,7.04-30.01,7.04c-15.54,0-34.93-7.66-38.94-9.32c-0.5-0.2-1.1-0.39-1.5-0.02c-0.1,0.09-0.18,0.19-0.24,0.32
				c-1.86,3.79-11.59,24.47-11.59,41.03c0,12.65-1.09,25.1,2.42,31.54c1.58,2.91,11.47,4.49,14.79,4.49h156.49
				C373.52,523.2,375.93,506.26,375.93,503.31z"/>
			<g transform="translate(196.683 441.81)">
				<defs>
					<filter id="Adobe_OpacityMaskFilter" filterUnits="userSpaceOnUse" x="-9.28" y="-1.1" width="211.76" height="88.19">
						<feColorMatrix  type="matrix" values="1 0 0 0 0  0 1 0 0 0  0 0 1 0 0  0 0 0 1 0"/>
					</filter>
				</defs>
				
					<mask maskUnits="userSpaceOnUse" x="-9.28" y="-1.1" width="211.76" height="88.19" id="b_00000075131677977263892830000002744224917410082212_">
					<g class="st4">
						<path id="a_00000005238523920057805460000000943274295564980668_" class="st5" d="M179.24,61.49
							c0-15.16-5.02-23.5-14.11-29.39C121.7,3.98,65.42,2.73,13.71,0.83c-0.42,0-1.77,3.12-1.96,3.5C9.9,8.12,0.16,28.8,0.16,45.36
							c0,12.65-1.09,25.1,2.42,31.54c1.58,2.91,11.47,4.49,14.79,4.49h156.49C176.83,81.39,179.24,64.45,179.24,61.49z"/>
					</g>
				</mask>
				<g class="st6">
					<g transform="translate(-9.689 -1.938)">
						<path class="st7" d="M166.18,43.21c15,0,19.2-8.66,20.81-10.11c2.9,3.36,0.48,16.95,2.42,23.11
							c1.94,6.16-0.81,12.2-2.42,14.45L51.96,76.92c-0.81-12.85-1.94-38.52,0-38.52c2.42,0,17.91-20.71,26.14-21.18
							c6.58-0.39,38.56,7.86,53.73,12.03c-1.94,1.93-5.13,11.74-6.29,16.37c-1.45,5.77-1.94,5.77,3.39,7.22
							c5.32,1.44,6.29-9.63,12.1-9.63H166.18z"/>
						<path class="st8" d="M63.57,38.88c-2.32-3.86-39.69-9.31-54.69-11.07L2.1,69.21l75.51,4.34C73.9,63.6,65.9,42.73,63.57,38.88z
							"/>
						<path class="st7" d="M46.15,11.43c-11.62-0.77-21.3-7.05-25.17-10.59C17.11,4.7,7.53,15.29,9.85,19.14
							c2.9,4.82,25.17,8.67,34.85,8.67S60.67,12.4,46.15,11.43z"/>
						<path class="st3" d="M103.26,68.73c24.68-0.97,45.98,4.82,73.09-0.97c48.4-5.29,23.53-2.15,35.82,21.27H22.35
							C3.56,84.62-2.68,57.38,11.3,59.59C41.79,64.39,84.38,69.47,103.26,68.73z"/>
						<path class="st9" d="M4.04,67.76c6.58,2.7,95.83,2.9,98.74,0.97c-6.78-1.44-56.65-7.07-67.76-7.7
							c-16.94-0.97-23.39-2.25-30.98-1.93C1.3,61.03-2.54,65.07,4.04,67.76z"/>
					</g>
				</g>
			</g>
			<path class="st10" d="M279.65,444.9c1.41-0.85,3.24-0.4,4.1,1.01c0.85,1.41,0.4,3.24-1.01,4.1l-0.46,0.27
				c-1.1,0.64-3.53,2.01-4.32,2.49c-0.22,0.14-0.44,0.27-0.65,0.4l-0.22,0.14l21.06-4.82c2.67-0.61,4.66,2.39,3.13,4.59l-0.1,0.13
				l-5.75,7.47l23.55-6.66c2.91-0.82,5.03,2.7,3.02,4.88l-0.12,0.12l-12.87,12.7c-1.17,1.16-3.06,1.15-4.22-0.03
				c-1.11-1.13-1.14-2.91-0.11-4.08l0.14-0.14l4.61-4.55l-21.06,5.96c-2.71,0.77-4.85-2.29-3.27-4.56l0.1-0.13l6.19-8.04
				l-21.26,4.87c-1.81,0.41-3.54-0.9-3.65-2.73l-0.01-0.18c0-3.99,2.7-6.9,7.69-10.02l0.71-0.44
				C275.9,447.04,279.17,445.19,279.65,444.9z"/>
			<path class="st10" d="M286.54,420.5c-7.54,0-13.26,6.37-13.41,14.97l-0.02,2l-0.06,3.84c0,0.14,0,0.28,0,0.43
				c0.01,2,0.12,3.38,0.42,4.51c0.35,1.32,0.95,2.28,1.9,2.9c0.92,0.65,2.32,0.99,4.21,0.99c3.94,0,8.65-1.46,12.32-3.89
				c4.14-2.74,6.56-6.39,6.56-10.44c0-4.39-1.07-8.21-3.08-10.93C293.29,422.04,290.26,420.5,286.54,420.5z M286.54,426.46
				c1.81,0,3.06,0.64,4.04,1.96c1.19,1.61,1.92,4.19,1.92,7.39c0,1.81-1.28,3.74-3.89,5.47c-2.7,1.79-6.27,2.89-9.03,2.89
				l-0.35-0.01l-0.09-0.01l-0.01-0.1l-0.04-0.4c-0.03-0.43-0.06-0.96-0.06-1.6l0-1.24l0.06-4.04l0-0.96
				C279.09,430.18,282.37,426.46,286.54,426.46z"/>
			<path class="st10" d="M258.56,433.44c-2.52,1.11-4.12,3.06-4.69,5.61c-0.55,2.43-0.13,5.31,1.19,8.26
				c1.21,2.71,3.95,4.43,7.57,5.02c3.22,0.52,6.85,0.08,9.53-1.11l0.28-0.13c1.09-0.51,1.82-1.09,2.25-1.75l-0.37-0.24l0.74-0.55
				l0.05-0.18c0.01-0.02,0.01-0.05,0.02-0.07l0.03-0.14c0.08-0.43,0.06-0.89-0.02-1.39c-0.13-0.78-0.42-1.66-0.93-2.83l-0.45-1.01
				l-1.13-2.42l-0.39-0.86C269.62,433.77,263.74,431.15,258.56,433.44z M266.68,441.85l0.12,0.25l0.27,0.59
				c0.14,0.3,0.28,0.6,0.43,0.94l1.03,2.2l0.14,0.31l-0.1,0.03c-1.5,0.41-3.35,0.53-4.97,0.27c-1.8-0.3-2.79-0.92-3.08-1.57
				c-0.82-1.84-1.05-3.44-0.81-4.51c0.16-0.7,0.49-1.11,1.28-1.46C262.95,438.02,265.31,439.03,266.68,441.85z"/>
			<path class="st3" d="M284.96,468.72l-11.58-5.18l-15,27.25l11.14,4.44l15.86-9.31l-8.15,12.97l11.02,5.19l14.46-27.22
				l-11.54-5.47l-13.96,8.09L284.96,468.72z M274.22,466.04l7.78,3.48l-11.62,16.18l20.89-12.12l8.79,4.16l-12.64,23.8l-7.37-3.47
				l11.21-17.84l-21.89,12.84l-8.22-3.28L274.22,466.04z M0,503.31c0-29.56,19.09-33.16,50.22-43.3
				c15.24-4.96,30.8-9.28,46.58-11.89c9.92-1.64,12.58,7.04,30.01,7.04c15.54,0,34.93-7.66,38.94-9.32c0.5-0.2,1.1-0.39,1.5-0.02
				c0.1,0.09,0.18,0.19,0.24,0.32c1.86,3.79,11.59,24.47,11.59,41.03c0,12.65,1.09,25.1-2.42,31.54
				c-1.58,2.91-11.47,4.49-14.79,4.49H5.38C2.41,523.2,0,506.26,0,503.31z"/>
			<g transform="translate(0 441.81)">
				<defs>
					
						<filter id="Adobe_OpacityMaskFilter_00000085238129916047062110000004492079357493719194_" filterUnits="userSpaceOnUse" x="-23.23" y="-1.1" width="211.76" height="88.19">
						<feColorMatrix  type="matrix" values="1 0 0 0 0  0 1 0 0 0  0 0 1 0 0  0 0 0 1 0"/>
					</filter>
				</defs>
				
					<mask maskUnits="userSpaceOnUse" x="-23.23" y="-1.1" width="211.76" height="88.19" id="d_00000160189652888552180990000011166240637227394457_">
					<g style="filter:url(#Adobe_OpacityMaskFilter_00000085238129916047062110000004492079357493719194_);">
						<path id="c_00000152265354863913570780000016138799674633246872_" class="st5" d="M0,61.49C0,46.33,5.02,38,14.11,32.11
							C57.54,3.98,113.82,2.73,165.53,0.83c0.42,0,1.77,3.12,1.96,3.5c1.86,3.79,11.59,24.47,11.59,41.03
							c0,12.65,1.09,25.1-2.42,31.54c-1.58,2.91-11.47,4.49-14.79,4.49H5.38C2.41,81.39,0,64.45,0,61.49z"/>
					</g>
				</mask>
				<g class="st12">
					<g transform="translate(-23.253 -1.938)">
						<path class="st7" d="M46,43.21c-15,0-19.2-8.66-20.81-10.11c-2.9,3.36-0.48,16.95-2.42,23.11s0.81,12.2,2.42,14.45
							l135.04,6.26c0.81-12.85,1.94-38.52,0-38.52c-2.42,0-17.91-20.71-26.14-21.18c-6.58-0.39-38.56,7.86-53.73,12.03
							c1.94,1.93,5.13,11.74,6.29,16.37c1.45,5.77,1.94,5.77-3.39,7.22c-5.32,1.44-6.29-9.63-12.1-9.63H46z"/>
						<path class="st8" d="M148.61,38.88c2.32-3.86,39.69-9.31,54.69-11.07l6.78,41.4l-75.51,4.34
							C138.29,63.6,146.29,42.73,148.61,38.88z"/>
						<path class="st7" d="M166.04,11.43c11.62-0.77,21.3-7.05,25.17-10.59c3.87,3.86,13.45,14.45,11.13,18.29
							c-2.9,4.82-25.17,8.67-34.85,8.67C157.81,27.81,151.52,12.4,166.04,11.43z"/>
						<path class="st3" d="M108.92,68.73c-24.68-0.97-45.98,4.82-73.09-0.97c-48.4-5.29-23.53-2.15-35.82,21.27h189.81
							c18.8-4.41,25.03-31.65,11.05-29.44C170.39,64.39,127.81,69.47,108.92,68.73z"/>
						<path class="st9" d="M208.14,67.76c-6.58,2.7-95.83,2.9-98.74,0.97c6.78-1.44,56.65-7.07,67.76-7.7
							c16.94-0.97,23.39-2.25,30.98-1.93C210.89,61.03,214.73,65.07,208.14,67.76z"/>
					</g>
				</g>
			</g>
			<path class="st10" d="M92.18,445.92c0.85-1.41,2.69-1.86,4.1-1.01l0.85,0.49c1.18,0.67,3.17,1.81,3.94,2.27l0.71,0.44
				c4.99,3.12,7.69,6.03,7.69,10.02c0,1.86-1.67,3.25-3.48,2.94l-0.17-0.03l-21.26-4.87l6.19,8.04c1.72,2.23-0.33,5.35-3.02,4.73
				l-0.16-0.04l-21.06-5.96l4.61,4.55c1.13,1.11,1.18,2.9,0.16,4.08l-0.13,0.14c-1.11,1.13-2.9,1.18-4.08,0.16l-0.14-0.13
				l-12.87-12.7c-2.16-2.13-0.14-5.7,2.75-5.04l0.16,0.04l23.55,6.66l-5.75-7.47c-1.67-2.17,0.22-5.23,2.87-4.76l0.16,0.03
				l21.06,4.82l-0.54-0.34l-0.6-0.36c-1.18-0.69-3.98-2.28-4.52-2.6C91.78,449.16,91.33,447.33,92.18,445.92z"/>
			<path class="st10" d="M89.39,420.5c-3.72,0-6.75,1.55-8.85,4.39c-2.01,2.71-3.08,6.53-3.08,10.92c0,4.05,2.42,7.7,6.56,10.44
				c3.68,2.43,8.38,3.89,12.33,3.89c1.9,0,3.29-0.34,4.28-1.04c0.88-0.58,1.48-1.53,1.83-2.86c0.28-1.06,0.4-2.33,0.42-4.12v-1.22
				l-0.06-3.98l-0.01-1.13C102.8,427.03,97.02,420.5,89.39,420.5z M89.39,426.46c4.17,0,7.45,3.71,7.45,9.35l0.01,1.31l0.06,4.07
				c0,0.18,0,0.35,0,0.53l0,0.3c-0.01,0.76-0.04,1.37-0.08,1.84l-0.03,0.3l-0.09,0.01l-0.35,0.01c-2.75,0-6.32-1.11-9.03-2.9
				c-2.6-1.72-3.88-3.66-3.88-5.46c0-3.19,0.73-5.77,1.91-7.38C86.32,427.1,87.57,426.46,89.39,426.46z"/>
			<path class="st10" d="M103.24,440.63l-1.2,2.56c-0.07,0.15-0.12,0.27-0.2,0.44c-0.59,1.33-0.93,2.29-1.06,3.14l-0.03,0.25
				c-0.04,0.33-0.04,0.64-0.01,0.93l0.04,0.25l0.03,0.16c0.02,0.1,0.05,0.19,0.12,0.38l0.6,0.42l-0.29,0.19
				c0.47,0.71,1.29,1.33,2.55,1.88c2.66,1.18,6.29,1.62,9.51,1.1c3.63-0.59,6.36-2.31,7.58-5.02c1.32-2.95,1.74-5.83,1.19-8.26
				c-0.57-2.54-2.17-4.5-4.7-5.61c-5.08-2.26-10.85,0.25-13.55,5.94L103.24,440.63z M108.99,442.39l0.13-0.28
				c1.35-3.02,3.79-4.11,5.82-3.21c0.8,0.35,1.13,0.76,1.29,1.46c0.24,1.07,0.01,2.67-0.81,4.51c-0.29,0.65-1.28,1.27-3.09,1.57
				l-0.35,0.05c-1.53,0.19-3.22,0.06-4.61-0.31l-0.11-0.03l0.47-1.03l0.86-1.84C108.73,442.97,108.86,442.68,108.99,442.39z"/>
			<path class="st3" d="M117.54,490.8l-15-27.25l-11.58,5.18l7.74,10.77l-13.96-8.09l-11.54,5.47l14.46,27.22l11.02-5.19
				l-8.15-12.97l15.87,9.31L117.54,490.8z M101.71,466.04l13.08,23.77l-8.22,3.27l-21.89-12.84l11.21,17.84l-7.37,3.47l-12.64-23.8
				l8.79-4.16l20.89,12.12l-11.62-16.18L101.71,466.04z"/>
		</g>
		<g transform="translate(0 421.464)">
			<path class="st0" d="M121.27,111.25c9.73-17.24,31.59-23.34,48.84-13.61s23.34,31.59,13.61,48.84
				c-17.83,31.61-36.49,90.29-48.88,151.97l-0.6,3c-5.4,27.41-9.14,53.45-10.76,74.91l-0.09,1.17c-0.79,10.96-1,20.42-0.64,27.92
				l0.07,1.26c0.16,2.67,0.39,4.99,0.67,6.91l0.16,0.98c0.22,1.3,0.43,2.13,0.52,2.39c6.77,18.61-2.83,39.18-21.44,45.94
				s-39.18-2.83-45.94-21.44c-10.52-28.93-6.31-87.14,7.75-157.13C78.28,215.89,99.02,150.68,121.27,111.25z M359.66,97.64
				c17.24-9.73,39.11-3.63,48.84,13.61c22.25,39.44,42.98,104.64,56.73,173.09c14.05,69.99,18.27,128.2,7.75,157.13
				c-6.77,18.61-27.33,28.21-45.94,21.44c-18.42-6.7-28.01-26.92-21.64-45.38l0.2-0.56c0.11-0.29,0.35-1.32,0.61-2.93
				c0.36-2.29,0.64-5.19,0.81-8.6l0.06-1.39c0.28-7.27,0.05-16.23-0.7-26.53l-0.18-2.34c-1.7-21.62-5.5-47.77-10.97-75.23l-0.3-1.5
				c-12.39-61.68-31.05-120.36-48.88-151.97C336.32,129.23,342.41,107.37,359.66,97.64z"/>
			<path class="st13" d="M337.38,43.95L337.38,43.95c-40.23,14.64-60.97,59.12-46.33,99.35l66.28,182.09
				c14.64,40.23,59.12,60.97,99.35,46.33l0,0c40.23-14.64,60.97-59.12,46.33-99.35L436.72,90.28
				C422.08,50.05,377.6,29.31,337.38,43.95z"/>
			<path class="st13" d="M192.38,43.95L192.38,43.95c40.23,14.64,60.97,59.12,46.33,99.35l-66.28,182.09
				c-14.64,40.23-59.12,60.97-99.35,46.33l0,0c-40.23-14.64-60.97-59.12-46.33-99.35L93.04,90.28
				C107.68,50.05,152.16,29.31,192.38,43.95z"/>
			<path class="st13" d="M121.65,96.49c-1.2-24.21,15.68-45.59,39.51-50.03l103.72-19.33L368.6,46.46
				c23.83,4.44,40.71,25.82,39.51,50.03L400.52,249l9.25,210.79c0.24,5.51-4.16,10.11-9.68,10.11H129.67
				c-5.52,0-9.92-4.6-9.68-10.11L129.24,249L121.65,96.49z"/>
			<path class="st0" d="M226.12,38.76c0-21.4,17.35-38.76,38.76-38.76c21.4,0,38.76,17.35,38.76,38.76v4.84
				c0,21.4-17.35,38.76-38.76,38.76c-21.4,0-38.76-17.35-38.76-38.76V38.76z"/>
		</g>
		<g transform="translate(78.855)">
			<path class="st0" d="M186.03,314.89L186.03,314.89c21.4,0,38.76,17.35,38.76,38.76v111.42c0,21.4-17.35,38.76-38.76,38.76h0
				c-21.4,0-38.76-17.35-38.76-38.76V353.64C147.27,332.24,164.62,314.89,186.03,314.89z"/>
			<path class="st14" d="M329.42,300.35c21.4,0,38.76-17.35,38.76-38.76s-17.35-38.76-38.76-38.76c-21.4,0-38.76,17.35-38.76,38.76
				S308.02,300.35,329.42,300.35z M38.76,300.35C17.35,300.35,0,283,0,261.6s17.35-38.76,38.76-38.76
				c21.4,0,38.76,17.35,38.76,38.76S60.16,300.35,38.76,300.35z"/>
			<path class="st15" d="M40.69,166.65c0-80.26,65.07-145.33,145.33-145.33s145.33,65.07,145.33,145.33v116.27
				c0,80.27-65.07,145.33-145.33,145.33S40.69,363.18,40.69,282.91V166.65z"/>
			<path class="st16" d="M280.43,171.99c4.81-0.3,8.95,3.35,9.25,8.16c0.29,4.72-3.22,8.8-7.9,9.23l-0.26,0.02l-54.26,3.39
				c-4.81,0.3-8.95-3.35-9.25-8.16c-0.29-4.72,3.22-8.8,7.9-9.23l0.26-0.02L280.43,171.99z M78.5,180.15
				c0.29-4.72,4.29-8.33,8.99-8.17l0.26,0.01l54.26,3.39c4.81,0.3,8.46,4.44,8.16,9.25c-0.29,4.72-4.29,8.33-8.99,8.17l-0.26-0.01
				l-54.26-3.39C81.85,189.1,78.2,184.96,78.5,180.15z"/>
			<path class="st17" d="M280.98,204.43H218c-8.56,0-15.5,6.94-15.5,15.5v25.19c0,19.26,15.62,34.88,34.88,34.88h24.22
				c19.26,0,34.88-15.62,34.88-34.88v-25.19C296.48,211.37,289.54,204.43,280.98,204.43z M218,216.06h62.98
				c2.14,0,3.88,1.73,3.88,3.88v25.19c0,12.84-10.41,23.25-23.25,23.25h-24.22c-12.84,0-23.25-10.41-23.25-23.25v-25.19
				C214.12,217.8,215.86,216.06,218,216.06z M150.18,204.43H87.2c-8.56,0-15.5,6.94-15.5,15.5v25.19
				c0,19.26,15.62,34.88,34.88,34.88h24.22c19.26,0,34.88-15.62,34.88-34.88v-25.19C165.68,211.37,158.74,204.43,150.18,204.43z
				 M87.2,216.06h62.98c2.14,0,3.88,1.73,3.88,3.88v25.19c0,12.84-10.41,23.25-23.25,23.25h-24.22c-12.84,0-23.25-10.41-23.25-23.25
				v-25.19C83.32,217.8,85.06,216.06,87.2,216.06z"/>
			<rect x="159.87" y="219.94" class="st18" width="48.44" height="9.69"/>
			<path d="M247.07,219.94c6.32,0,11.47,5.05,11.62,11.33l0,0.3v11.63c0,6.42-5.21,11.63-11.63,11.63
				c-6.32,0-11.47-5.05-11.62-11.33l0-0.3v-11.63C235.44,225.14,240.64,219.94,247.07,219.94z M121.59,219.94
				c6.32,0,11.47,5.05,11.62,11.33l0,0.3v11.63c0,6.42-5.21,11.63-11.63,11.63c-6.32,0-11.47-5.05-11.62-11.33l0-0.3v-11.63
				C109.97,225.14,115.17,219.94,121.59,219.94z"/>
			<path class="st19" d="M219.1,344.28c3.56-2.07,8.13-0.85,10.2,2.71c2.07,3.56,0.85,8.13-2.71,10.2l-0.48,0.27
				c-0.15,0.08-0.31,0.17-0.5,0.26c-0.66,0.34-1.43,0.71-2.3,1.11c-2.41,1.09-5.22,2.16-8.42,3.15c-8.97,2.79-19.28,4.45-30.8,4.45
				s-21.82-1.66-30.8-4.45c-3.19-0.99-6-2.07-8.42-3.15c-0.73-0.33-1.38-0.64-1.96-0.93l-0.34-0.17c-0.44-0.23-0.76-0.4-0.98-0.53
				c-3.56-2.07-4.78-6.63-2.71-10.2c2.02-3.49,6.44-4.73,9.97-2.84l0.43,0.24c0.29,0.15,0.79,0.4,1.5,0.73l0.22,0.1
				c1.87,0.84,4.12,1.7,6.72,2.51c7.58,2.36,16.4,3.78,26.37,3.78c9.96,0,18.79-1.42,26.37-3.78c2.39-0.74,4.47-1.52,6.25-2.3
				l0.48-0.21c0.82-0.37,1.4-0.66,1.72-0.83L219.1,344.28z"/>
			<path class="st20" d="M334.26,132.24c0.23-6.08-4.17-11.13-9.68-11.13c-5.71,0-10.18,5.42-9.64,11.69l9.12,145.04
				c0.15,1.78,1.5,3.13,3.11,3.13c1.68,0,3.06-1.46,3.13-3.31L334.26,132.24z M53.28,132.24c0.23-6.08-4.17-11.13-9.68-11.13
				c-5.71,0-10.18,5.42-9.64,11.69l9.12,145.04c0.15,1.78,1.5,3.13,3.11,3.13c1.68,0,3.06-1.46,3.13-3.31L53.28,132.24z"/>
			<path class="st16" d="M186.45,5.3c25.92-11.74,80.16-5.13,98.3,31.33c31.41,0,61.35,31.32,53.49,69.86
				c15.06,11.92,20.02,36.6,6.68,53.24l-0.41,0.5c-13.85,16.64-12.31,34.04-24.92,16.6c-7.08-12.63-14.27-22.77-21.98-30.9
				l-0.21,1.97c-0.46,4.33-0.9,9.02-1.28,14.13l-1.29-1.73c-20.8-27.8-28-31.14-56.69-33.3c-9.52,7.88-6.26,24.04,13.81,32.92
				c-21.4,0-66.53-8.88-65.26-30.72l-0.52,0.28c-8.59,4.43-18.1,4.38-18.1,27.02c-17.05-18.89-49.09-42.99-83.64-16.89
				c-22.14,16.72-28.27,30.56-33.4,62.42l-0.16,0.97l-11.55-23.52c-2.57-4.49-5.61-11.65-11.37-18.74l-0.41-0.49
				c-13.85-16.64-8.94-41.69,6.27-53.74C25.96,67.95,55.89,36.64,87.3,36.64C105.54-0.02,160.28-6.51,186.03,5.5L186.45,5.3z"/>
			<path class="st0" d="M177.24,247.34l13.7,9.14c-4.66,6.99-8.31,17.47-8.31,25.1c0,7.36,2.66,10.45,10.79,10.53l0.36,0v16.47
				c-17.97,0-27.61-10.85-27.61-27.01c0-10.94,4.55-24.23,10.73-33.73L177.24,247.34z"/>
		</g>
	</g>
</g>
</svg>
