<?xml version="1.0" encoding="utf-8"?>
<!-- Generator: Adobe Illustrator 27.0.0, SVG Export Plug-In . SVG Version: 6.00 Build 0)  -->
<svg version="1.1" id="Layer_1" xmlns="http://www.w3.org/2000/svg" xmlns:xlink="http://www.w3.org/1999/xlink" x="0px" y="0px"
	 viewBox="0 0 612 792" style="enable-background:new 0 0 612 792;" xml:space="preserve">
<style type="text/css">
	.st0{fill:#E4E4E0;}
	.st1{fill:#F7F7F6;}
	.st2{fill:#EAB9AA;}
	.st3{fill:#F1F1ED;}
	.st4{fill:#FFFFFF;}
	.st5{fill:#7FBFD7;}
	.st6{fill:#E4D090;}
	.st7{fill:#E8D79D;}
	.st8{fill:#CC8879;}
	.st9{fill:#F4F3F4;}
	.st10{fill:#272727;}
	.st11{fill:#E4C1C1;}
	.st12{fill:#F5DDD6;}
	.st13{fill-rule:evenodd;clip-rule:evenodd;fill:#3A3A39;}
	.st14{filter:url(#Adobe_OpacityMaskFilter);}
	.st15{fill-rule:evenodd;clip-rule:evenodd;fill:#FFFFFF;}
	.st16{mask:url(#b_00000027562300998168823490000017294705990394478465_);fill:#F26C6E;}
	.st17{fill:#010101;}
	.st18{fill:#271E1E;}
</style>
<g>
	<g transform="translate(363 131)">
		<g transform="translate(36.438 676.828)">
			<path class="st0" d="M-125.6-88.55c2.11-6.2-2.05-11.2-4.39-12.92c-1.17,1.61-2.63,9.77-5.27,16.08l-6.87,8.19L-152.52-65
				l-12.87,6.03l6.73,7.75C-154.08-54.66-127.71-82.35-125.6-88.55z"/>
			<path class="st1" d="M-85.74-45.93c0,0,0.37-13.48-2.55-20.95c-2.92-7.47-5.93-26.73-5.93-26.73s-5.18,5.46-14.84,5.46
				c-9.65,0-19.89-2.28-19.89-2.28s-17.93,23.25-22.61,26.12c-4.68,2.87-27.5,8.9-27.5,8.9c-5.01,0-9.07,3.98-9.07,8.9v4.53h55
				L-85.74-45.93z"/>
			<path d="M-138.51-85.14c0.35-0.85,1.31-1.28,2.19-1l0.09,0.03l2.93,1.15c0.9,0.35,1.34,1.36,0.98,2.24
				c-0.35,0.85-1.31,1.28-2.19,1l-0.09-0.03l-2.93-1.15C-138.43-83.25-138.87-84.26-138.51-85.14z M-142.31-79.97
				c0.35-0.85,1.31-1.28,2.19-1l0.09,0.03l2.93,1.15c0.9,0.35,1.34,1.36,0.98,2.24c-0.35,0.85-1.31,1.28-2.19,1l-0.09-0.03
				l-2.93-1.15C-142.23-78.08-142.67-79.09-142.31-79.97z M-147.78-75.52c0.42-1.03,1.6-1.54,2.66-1.2l0.11,0.04l3.56,1.39
				c1.1,0.43,1.63,1.63,1.19,2.7c-0.42,1.03-1.6,1.54-2.66,1.2l-0.11-0.04l-3.56-1.39C-147.69-73.25-148.22-74.46-147.78-75.52z
				 M-151.67-69.63c0.35-0.85,1.31-1.28,2.19-1l0.09,0.03l2.93,1.15c0.9,0.35,1.34,1.36,0.98,2.24c-0.35,0.85-1.31,1.28-2.19,1
				l-0.09-0.03l-2.93-1.15C-151.59-67.74-152.03-68.75-151.67-69.63z M-156.35-65.04c0.35-0.85,1.31-1.28,2.19-0.99l0.09,0.03
				l2.93,1.15c0.9,0.35,1.34,1.36,0.98,2.24c-0.35,0.85-1.31,1.28-2.19,0.99l-0.09-0.03l-2.93-1.15
				C-156.28-63.15-156.71-64.16-156.35-65.04z"/>
			<path d="M-84.97-46.56l-51.78,2.3l-51.49-2.3l-0.81,6.61c-0.25,2.01,1.31,3.79,3.37,3.86l47.86,1.6l26.72,0.28l26.72-0.86
				L-84.97-46.56z"/>
			<path class="st1" d="M-85.12-40.81l0.08,2.3l-15.53,0.58l-5.95,0.21c-7.14,0.23-12.54,0.36-16.09,0.37l-1.04,0
				c-7.35-0.04-22.84-0.61-29.22-1.11l-0.48-0.04l0.2-2.29l0.48,0.04c6.56,0.52,22.96,1.11,29.84,1.11l1.09,0
				c3.43-0.02,8.36-0.14,14.71-0.35l3.83-0.13L-85.12-40.81z"/>
			<path d="M-151.51-34.82v-5.17v-2.01l-37.15-1.72l-0.53,4.66c-0.19,1.67,1.11,3.14,2.82,3.19L-151.51-34.82z"/>
			<ellipse class="st0" cx="-106.25" cy="-68.9" rx="10.53" ry="10.34"/>
			<path d="M-105.94-76.63c-0.24-0.41-0.86-0.37-1.05,0.06l-1.75,4.09c-0.07,0.17-0.23,0.3-0.42,0.34l-4.42,0.9
				c-0.47,0.1-0.63,0.69-0.26,1l3.42,2.9c0.15,0.13,0.22,0.31,0.2,0.5l-0.49,4.41c-0.05,0.47,0.47,0.8,0.88,0.56l3.86-2.3
				c0.16-0.1,0.37-0.11,0.54-0.03l4.12,1.82c0.44,0.19,0.92-0.19,0.81-0.66l-1.03-4.31c-0.04-0.18,0.01-0.38,0.14-0.52l3.04-3.28
				c0.33-0.35,0.1-0.92-0.38-0.96l-4.5-0.37c-0.19-0.02-0.36-0.13-0.46-0.29L-105.94-76.63z"/>
			<path class="st0" d="M-35.16-88.55c-2.11-6.2,2.05-11.2,4.39-12.92c1.17,1.61,2.63,9.77,5.27,16.08l6.87,8.19L-8.24-65
				l12.87,6.03l-6.73,7.75C-6.68-54.66-33.05-82.35-35.16-88.55z"/>
			<path class="st1" d="M-75.02-45.93c0,0-0.37-13.48,2.55-20.95c2.92-7.47,5.93-26.73,5.93-26.73s5.18,5.46,14.84,5.46
				c9.65,0,19.89-2.28,19.89-2.28s17.93,23.25,22.61,26.12c4.68,2.87,27.5,8.9,27.5,8.9c5.01,0,9.07,3.98,9.07,8.9v4.53h-55
				L-75.02-45.93z"/>
			<path d="M-24.53-86.1c0.9-0.35,1.92,0.08,2.28,0.96c0.35,0.85-0.05,1.82-0.89,2.2l-0.09,0.04l-2.93,1.15
				c-0.9,0.35-1.92-0.08-2.28-0.96c-0.35-0.85,0.05-1.82,0.89-2.2l0.09-0.04L-24.53-86.1z M-20.73-80.93
				c0.9-0.35,1.92,0.08,2.28,0.96c0.35,0.85-0.05,1.82-0.89,2.2l-0.09,0.04l-2.93,1.15c-0.9,0.35-1.92-0.08-2.28-0.96
				c-0.35-0.85,0.05-1.82,0.89-2.2l0.09-0.04L-20.73-80.93z M-16.63-75.76c0.9-0.35,1.92,0.08,2.28,0.96
				c0.35,0.85-0.05,1.82-0.88,2.2l-0.09,0.04l-2.93,1.15c-0.9,0.35-1.92-0.08-2.28-0.96c-0.35-0.85,0.05-1.82,0.88-2.2l0.09-0.04
				L-16.63-75.76z M-11.37-70.59c0.9-0.35,1.92,0.08,2.28,0.96c0.35,0.85-0.05,1.82-0.89,2.2l-0.09,0.04l-2.93,1.15
				c-0.9,0.35-1.92-0.08-2.28-0.96c-0.35-0.85,0.05-1.82,0.89-2.2l0.09-0.04L-11.37-70.59z M-6.69-66c0.9-0.35,1.92,0.08,2.28,0.96
				c0.35,0.85-0.05,1.82-0.89,2.2l-0.09,0.04l-2.93,1.15c-0.9,0.35-1.92-0.08-2.28-0.96c-0.35-0.85,0.05-1.82,0.89-2.2l0.09-0.04
				L-6.69-66z"/>
			<path d="M-75.79-46.56l51.78,2.3l51.49-2.3l0.81,6.61c0.25,2.01-1.31,3.79-3.37,3.86l-47.86,1.6l-26.72,0.28l-26.72-0.86
				L-75.79-46.56z"/>
			<path class="st1" d="M-75.73-38.51l0.08-2.3l15.53,0.58c1.3,0.05,2.55,0.09,3.75,0.13l5.07,0.17c5.83,0.18,10.3,0.28,13.34,0.28
				l0.82,0c7.29-0.04,22.71-0.61,29.02-1.1l0.48-0.04l0.2,2.29l-0.48,0.04c-6.38,0.51-21.85,1.07-29.21,1.11l-1.04,0l-1.12-0.01
				c-3.6-0.03-8.76-0.16-15.4-0.38l-2.99-0.1L-75.73-38.51z"/>
			<path d="M-9.25-34.82v-4.7v-1.82L27.9-42.9l0.53,4.24c0.19,1.51-1.11,2.85-2.82,2.9L-9.25-34.82z"/>
			<ellipse class="st0" cx="-54.51" cy="-68.9" rx="10.53" ry="10.34"/>
			<path d="M-54.82-76.63c0.24-0.41,0.86-0.37,1.05,0.06l1.75,4.09c0.07,0.17,0.23,0.3,0.42,0.34l4.42,0.9
				c0.47,0.1,0.63,0.69,0.26,1l-3.42,2.9c-0.15,0.13-0.22,0.31-0.2,0.5l0.49,4.41c0.05,0.47-0.47,0.8-0.88,0.56l-3.86-2.3
				c-0.16-0.1-0.37-0.11-0.54-0.03l-4.12,1.82c-0.44,0.19-0.92-0.19-0.81-0.66l1.03-4.31c0.04-0.18-0.01-0.38-0.14-0.52l-3.04-3.28
				c-0.33-0.35-0.1-0.92,0.38-0.96l4.5-0.37c0.19-0.02,0.36-0.13,0.46-0.29L-54.82-76.63z"/>
			<path class="st2" d="M-51.53-191.23c8.15,0,14.78,6.42,14.91,14.4l0,0.24v82.43c0,8.09-6.68,14.64-14.91,14.64
				c-8.15,0-14.78-6.42-14.91-14.4l0-0.24v-82.43C-66.44-184.68-59.76-191.23-51.53-191.23z M-108.97-191.23
				c8.15,0,14.78,6.42,14.91,14.4l0,0.24v81.34c0,8.09-6.68,14.64-14.91,14.64c-8.15,0-14.78-6.42-14.91-14.4l0-0.24v-81.34
				C-123.88-184.68-117.21-191.23-108.97-191.23z"/>
			<path class="st1" d="M-180.77-101.89l23.75-208.75l17.4-71.47l63.21,17.55c8.78,80.32-1.22,287.06-12.64,290.18
				C-100.48-71.27-177.11-94.98-180.77-101.89z"/>
			<path class="st1" d="M22.48-101.89L-1.27-310.64l-17.4-71.47l-63.21,17.55c-8.78,80.32,1.22,287.06,12.64,290.18
				C-57.81-71.27,18.82-94.98,22.48-101.89z"/>
		</g>
		<g transform="translate(.57 274.445)">
			<path class="st2" d="M-129.34-93.9c4.5-7.83,14.6-10.59,22.57-6.18c7.97,4.41,10.79,14.34,6.29,22.16
				c-10.53,18.33-18.96,46.42-23.35,75.99c-3.89,26.26-3.85,50.01-0.62,59.21l0.1,0.27c3.13,8.44-1.31,17.78-9.91,20.85
				c-8.6,3.07-18.11-1.29-21.23-9.73c-5.7-15.38-5.79-43.83-1.13-75.29C-151.69-39.83-142.16-71.58-129.34-93.9z"/>
			<path class="st3" d="M-63.68-64.09c9.18-24.27-4.9-51.02-30.37-57.72c-23.87-6.28-48.41,7.63-54.8,31.06l-19.36,70.92
				c-7.29,26.69,14.2,52.55,42.3,50.9c16.31-0.96,30.51-11.29,36.2-26.33L-63.68-64.09z"/>
			<polygon class="st4" points="-145.71,-33.95 -105.67,-22.02 -149.3,-26.09 			"/>
			<path class="st3" d="M-170.24,46.85c-3.34-10-2.73-46.92,1.45-63.22l58.13,6.29c-6.38,20.65,4.7,18.92,0,45.55
				C-121.64,36-166.06,59.34-170.24,46.85z"/>
			<polygon class="st5" points="46.2,-16.6 15.27,-18.23 42.06,-9.82 			"/>
			<path class="st2" d="M14.86-105.06c7.97-4.41,18.08-1.65,22.57,6.18C50.26-76.57,59.79-44.81,64.71-11.6
				c4.66,31.46,4.57,59.9-1.13,75.29c-3.13,8.44-12.63,12.8-21.23,9.73c-8.51-3.04-12.95-12.22-10-20.59l0.09-0.25
				c3.33-9,3.41-32.96-0.52-59.48C27.53-36.48,19.11-64.56,8.57-82.9C4.07-90.72,6.89-100.64,14.86-105.06z"/>
			<path class="st3" d="M-31.35-64.38c-7.72-24.55,6.88-50.48,32.15-57.12c24.55-6.46,49.81,7.79,56.47,31.88l16.95,61.2
				c9.24,33.38-22.37,63.79-56.18,54.03C3.55,21.43-7.84,10.4-12.3-3.77L-31.35-64.38z"/>
			<polygon class="st4" points="53.66,-33.95 13.61,-22.02 57.25,-26.09 			"/>
			<path class="st3" d="M80.17,36.27c3.4-10-0.69-43.88-4.95-60.19L15.39-10.09c6.49,20.65-4.79,9.97,0,36.6
				C26.56,27.05,75.91,48.77,80.17,36.27z"/>
			<path d="M-124.93-95.75c-2.19-14.75,8.16-28.47,23.16-30.72l55.72-8.34l55.72,8.34c15.01,2.25,25.36,15.97,23.16,30.72
				l-7.09,47.7l8.33,71.52c0.32,2.72-0.88,5.39-3.13,7l-11.54,8.24h-130.35l-9.58-8.36c-1.79-1.57-2.75-3.86-2.58-6.21l5.25-72.19
				L-124.93-95.75z"/>
			<path class="st2" d="M-44.98-191.2h0.1c11.56,0,20.94,9.2,20.94,20.56v64.08c0,11.35-9.37,20.56-20.94,20.56h-0.1
				c-11.56,0-20.94-9.2-20.94-20.56v-64.08C-65.92-182-56.55-191.2-44.98-191.2z"/>
			<g transform="translate(148.733 119.264)">
				<path class="st6" d="M-99.09-67.01c-0.07-2.1,1.61-3.85,3.74-3.92l6.55-0.21c2.06-0.07,3.81,1.46,3.98,3.48l3.38,39.5
					c0.18,2.17-1.52,4.04-3.73,4.11l-8.63,0.27c-2.13,0.07-3.92-1.58-3.99-3.67L-99.09-67.01z"/>
				<path class="st7" d="M-126.28-76.76c0-2.1,1.73-3.8,3.87-3.8h24.03c2.02,0,3.71,1.53,3.86,3.51l4.95,65.07
					c0.17,2.2-1.61,4.08-3.86,4.08h-28.97c-2.14,0-3.87-1.7-3.87-3.8V-76.76z"/>
				<path class="st8" d="M-232.95-247.79c3.32,18.25,16.97,49.45,35.88,79.04c23.62,36.96,53.2,68.81,86.82,90.69l1.02,0.66l2,1.28
					v19.7h-8.84l0-15.02l-0.11-0.07c-33.98-22.37-63.76-54.4-87.64-91.48l-0.74-1.15c-19.27-30.15-33.27-62.01-36.99-81.53
					l-0.11-0.59L-232.95-247.79z"/>
			</g>
			<path class="st9" d="M-16.09-132.15l-4.3-1.75c-1.85-0.75-3.94,0.32-4.37,2.24l-2.5,11.33c-1.94,8.79-9.86,15.07-19.03,15.07
				c-8.55,0-16.11-5.48-18.61-13.51l-3.87-12.41c-0.66-2.13-3.18-3.09-5.14-1.97l-1.29,0.74c-1.71,0.98-2.54,2.96-2.04,4.84
				l5.33,20.02c1.2,4.53,3.53,8.69,6.76,12.12l0.87,0.93c4.93,5.24,11.86,8.21,19.12,8.21c9.05,0,17.45-4.61,22.19-12.19l1.58-2.53
				c1.77-2.82,3.06-5.9,3.83-9.13l4.06-17.03C-12.98-129.23-14.09-131.34-16.09-132.15z"/>
			<polygon class="st9" points="-44.38,-90.89 -56.81,-90.89 -83.04,-43.98 -44.38,-43.98 			"/>
			<polygon class="st9" points="-42.72,-90.89 -55.15,-90.89 -70.34,-22.02 -31.68,-22.02 			"/>
			<polygon class="st1" points="-50.46,-104.44 -39.98,-104.44 -17.87,-67.57 -50.46,-67.57 			"/>
		</g>
		<g transform="translate(68.698)">
			<path class="st10" d="M-181.55,153.73c3.28-41.57,22.34-124.72,72.35-124.72C-123.09,73.86-163.22,130.85-181.55,153.73z"/>
			<path class="st10" d="M-38.5,156.45C-71.08,115.5-54.66,29.01-112.51,29.01C-96.44,69.37-107.26,129.87-38.5,156.45z"/>
			<path class="st10" d="M-45.95,126.08c-23.35-31.36-14.62-97.06-56.06-97.06C-90.5,59.93-95.22,105.73-45.95,126.08z"/>
			<path class="st11" d="M-176.58,79.99c-15.25,0-27.62-12.14-27.62-27.11s12.36-27.11,27.62-27.11s27.62,12.14,27.62,27.11
				S-161.33,79.99-176.58,79.99z M-48.44,79.99c15.25,0,27.62-12.14,27.62-27.11s-12.36-27.11-27.62-27.11S-76.06,37.9-76.06,52.87
				S-63.69,79.99-48.44,79.99z"/>
			<path class="st12" d="M-187.67,20.73c-2.67-42.54,31.75-78.48,75.16-78.48c43.41,0,77.83,35.94,75.16,78.48l-3.37,53.7
				c-1.68,26.8-24.23,50.35-49.45,60.75c-17.82,7.35-26.86,7.35-44.69,0c-25.22-10.4-47.76-33.95-49.45-60.75L-187.67,20.73z"/>
			<path class="st13" d="M-136.26,92.46v5.58c0,8.59,10.63,15.56,23.75,15.56c13.12,0,23.75-6.96,23.75-15.56v-5.58H-136.26z"/>
			<g transform="translate(126.302 291)">
				<defs>
					<filter id="Adobe_OpacityMaskFilter" filterUnits="userSpaceOnUse" x="-253.13" y="-182.62" width="28.64" height="10.21">
						<feColorMatrix  type="matrix" values="1 0 0 0 0  0 1 0 0 0  0 0 1 0 0  0 0 0 1 0"/>
					</filter>
				</defs>
				
					<mask maskUnits="userSpaceOnUse" x="-253.13" y="-182.62" width="28.64" height="10.21" id="b_00000027562300998168823490000017294705990394478465_">
					<g class="st14">
						<path id="a_00000016045267780683340340000008013482866256190373_" class="st15" d="M-262.52-198.54
							c-0.03,0.29-0.04,0.58-0.04,0.87v5.44c0,8.2,10.64,14.84,23.75,14.84c13.12,0,23.75-6.64,23.75-14.84v-5.44
							c0-0.29-0.01-0.58-0.04-0.87H-262.52z"/>
					</g>
				</mask>
				<path class="st16" d="M-238.81-172.4c7.91,0,14.32-2.29,14.32-5.11c0-2.82-6.41-5.11-14.32-5.11c-7.91,0-14.32,2.29-14.32,5.11
					C-253.13-174.69-246.72-172.4-238.81-172.4z"/>
			</g>
			<rect x="-136.26" y="92.46" class="st4" width="47.5" height="6.41"/>
			<path class="st17" d="M-142.89,38.23c1.53,0,2.76,1.21,2.76,2.71c0,1.46-1.17,2.65-2.64,2.71l-0.12,0h-16.57
				c-1.53,0-2.76-1.21-2.76-2.71c0-1.46,1.17-2.65,2.64-2.71l0.12,0H-142.89z M-65.56,38.23c1.53,0,2.76,1.21,2.76,2.71
				c0,1.46-1.17,2.65-2.64,2.71l-0.12,0h-16.57c-1.53,0-2.76-1.21-2.76-2.71c0-1.46,1.17-2.65,2.64-2.71l0.12,0H-65.56z"/>
			<path class="st17" d="M-79.92,33.9c3.61,0,6.54,2.83,6.63,6.35l0,0.16l0,10.3c0,3.59-2.97,6.51-6.63,6.51
				c-3.61,0-6.54-2.83-6.63-6.35l0-0.16l0-10.3C-86.55,36.81-83.58,33.9-79.92,33.9z M-145.09,33.9c3.61,0,6.54,2.83,6.63,6.35
				l0,0.16l0,10.3c0,3.59-2.97,6.51-6.63,6.51c-3.61,0-6.54-2.83-6.63-6.35l0-0.16l0-10.3C-151.72,36.81-148.76,33.9-145.09,33.9z"
				/>
			<path class="st18" d="M-79.66,12.61c3.76-0.31,6.96-0.28,9.48,0.2c2.56,0.48,4.84,1.19,6.83,2.07c1.44,0.63,2.67,1.33,3.69,2.03
				c0.66,0.46,1.13,0.85,1.42,1.13c1.29,1.27,1.29,3.33,0,4.6c-1.26,1.24-3.29,1.27-4.59,0.09l-0.1-0.09l-0.04-0.03
				c-0.13-0.11-0.3-0.24-0.52-0.39c-0.67-0.46-1.52-0.94-2.56-1.4c-1.53-0.67-3.32-1.23-5.37-1.62c-1.81-0.34-4.46-0.37-7.68-0.11
				c-2.13,0.17-4.41,0.46-6.75,0.84c-1.23,0.2-2.4,0.41-3.5,0.62l-0.87,0.17c-0.2,0.04-0.38,0.08-0.56,0.11l-0.56,0.12
				c-1.79,0.4-3.56-0.7-3.96-2.46c-0.39-1.71,0.67-3.42,2.38-3.86l0.16-0.04l0.42-0.09c0.36-0.08,0.77-0.16,1.22-0.25
				c1.3-0.26,2.71-0.51,4.2-0.75C-84.43,13.11-81.98,12.79-79.66,12.61z M-152.07,12.81c2.52-0.48,5.71-0.51,9.48-0.2
				c2.32,0.19,4.77,0.5,7.26,0.9c1.49,0.24,2.9,0.49,4.2,0.75l1.04,0.21l0.64,0.14c1.79,0.4,2.9,2.14,2.5,3.89
				c-0.39,1.71-2.1,2.8-3.84,2.48l-0.51-0.11c-0.22-0.05-0.46-0.1-0.72-0.15l-0.41-0.08c-1.22-0.24-2.56-0.48-3.96-0.71
				c-2.34-0.37-4.62-0.66-6.75-0.84c-3.21-0.26-5.87-0.24-7.68,0.11c-2.06,0.39-3.84,0.94-5.38,1.62c-1.04,0.46-1.89,0.94-2.56,1.4
				c-0.17,0.12-0.32,0.23-0.43,0.32l-0.14,0.11l0.01-0.01c-1.29,1.27-3.39,1.27-4.69,0c-1.29-1.27-1.29-3.33,0-4.6l0.15-0.14
				c0.29-0.27,0.71-0.61,1.27-1c1.02-0.71,2.24-1.4,3.69-2.03C-156.91,14-154.64,13.29-152.07,12.81z"/>
			<path class="st2" d="M-116.41,49.77l7.81,5.11c-2.66,3.91-4.73,9.78-4.74,14.05l0,0.34c0.08,3.88,1.64,5.51,6.15,5.56l0.2,0v9.22
				c-10.24,0-15.74-6.07-15.74-15.12c0-6.13,2.6-13.56,6.12-18.88L-116.41,49.77z"/>
			<path class="st10" d="M-111.69-38.99v-12.43v-7.65c-6.3-3.01-18.61-2.09-29.04,0c-13.56,2.71-37.7,24.64-43.5,45.25
				c-5.83,20.71-5.48,25.5-4.43,39.98l0.03,0.46c5.53,1.39,7.08,8.72,7.08,5.39c0-4.17-4.76-32.58,28.18-56.39
				C-132.76-39.31-111.69-36.21-111.69-38.99z M-110.3-38.99v-12.43v-7.65c6.3-3.01,18.61-2.09,29.04,0
				c13.56,2.71,37.7,24.64,43.5,45.25c5.83,20.71,5.48,25.5,4.44,39.98l-0.03,0.46c-5.53,1.39-7.08,8.72-7.08,5.39
				c0-4.17,7.26-33.39-25.68-57.21C-86.74-40.12-110.3-36.21-110.3-38.99z"/>
		</g>
	</g>
</g>
</svg>
